<svg width="48" height="48" viewBox="0 0 48 48" fill="none" xmlns="http://www.w3.org/2000/svg">
<path d="M40.5 25.4958C40.1022 25.4958 39.7206 25.6538 39.4393 25.9351C39.158 26.2164 39 26.5979 39 26.9958C39 31.6251 36.4181 32.5533 31.8562 33.7983C29.7262 34.3795 27.3337 35.0358 25.5 36.487V23.9958H31.5C31.8978 23.9958 32.2794 23.8377 32.5607 23.5564C32.842 23.2751 33 22.8936 33 22.4958C33 22.0979 32.842 21.7164 32.5607 21.4351C32.2794 21.1538 31.8978 20.9958 31.5 20.9958H25.5V16.3083C26.914 15.9432 28.1463 15.0749 28.9659 13.8662C29.7855 12.6576 30.1362 11.1915 29.9522 9.74275C29.7682 8.29403 29.0621 6.96215 27.9663 5.99677C26.8706 5.03139 25.4604 4.49878 24 4.49878C22.5396 4.49878 21.1294 5.03139 20.0337 5.99677C18.9379 6.96215 18.2318 8.29403 18.0478 9.74275C17.8638 11.1915 18.2145 12.6576 19.0341 13.8662C19.8537 15.0749 21.086 15.9432 22.5 16.3083V20.9958H16.5C16.1022 20.9958 15.7206 21.1538 15.4393 21.4351C15.158 21.7164 15 22.0979 15 22.4958C15 22.8936 15.158 23.2751 15.4393 23.5564C15.7206 23.8377 16.1022 23.9958 16.5 23.9958H22.5V36.487C20.6663 35.0358 18.2737 34.3795 16.1437 33.7983C11.5819 32.5533 9 31.6251 9 26.9958C9 26.5979 8.84196 26.2164 8.56066 25.9351C8.27936 25.6538 7.89782 25.4958 7.5 25.4958C7.10218 25.4958 6.72064 25.6538 6.43934 25.9351C6.15804 26.2164 6 26.5979 6 26.9958C6 34.1414 11.1881 35.557 15.3563 36.6933C19.9181 37.9383 22.5 38.8664 22.5 43.4958C22.5 43.8936 22.658 44.2751 22.9393 44.5564C23.2206 44.8377 23.6022 44.9958 24 44.9958C24.3978 44.9958 24.7794 44.8377 25.0607 44.5564C25.342 44.2751 25.5 43.8936 25.5 43.4958C25.5 38.8664 28.0819 37.9383 32.6438 36.6933C36.8119 35.557 42 34.1414 42 26.9958C42 26.5979 41.842 26.2164 41.5607 25.9351C41.2794 25.6538 40.8978 25.4958 40.5 25.4958ZM21 10.4958C21 9.90241 21.1759 9.32239 21.5056 8.82904C21.8352 8.3357 22.3038 7.95118 22.8519 7.72412C23.4001 7.49705 24.0033 7.43764 24.5853 7.5534C25.1672 7.66915 25.7018 7.95488 26.1213 8.37443C26.5409 8.79399 26.8266 9.32854 26.9424 9.91048C27.0581 10.4924 26.9987 11.0956 26.7716 11.6438C26.5446 12.192 26.1601 12.6605 25.6667 12.9902C25.1734 13.3198 24.5933 13.4958 24 13.4958C23.2044 13.4958 22.4413 13.1797 21.8787 12.6171C21.3161 12.0545 21 11.2914 21 10.4958Z" fill="#C7AB17"/>
</svg>
