<svg width="48" height="53" viewBox="0 0 48 53" fill="none" xmlns="http://www.w3.org/2000/svg">
<g filter="url(#filter0_d_150_5895)">
<path d="M40.5 25.4959C40.1022 25.4959 39.7206 25.6539 39.4393 25.9352C39.158 26.2165 39 26.5981 39 26.9959C39 31.6253 36.4181 32.5534 31.8562 33.7984C29.7262 34.3796 27.3337 35.0359 25.5 36.4871V23.9959H31.5C31.8978 23.9959 32.2794 23.8378 32.5607 23.5565C32.842 23.2752 33 22.8937 33 22.4959C33 22.0981 32.842 21.7165 32.5607 21.4352C32.2794 21.1539 31.8978 20.9959 31.5 20.9959H25.5V16.3084C26.914 15.9433 28.1463 15.075 28.9659 13.8664C29.7855 12.6577 30.1362 11.1916 29.9522 9.74288C29.7682 8.29416 29.0621 6.96228 27.9663 5.99689C26.8706 5.03151 25.4604 4.4989 24 4.4989C22.5396 4.4989 21.1294 5.03151 20.0337 5.99689C18.9379 6.96228 18.2318 8.29416 18.0478 9.74288C17.8638 11.1916 18.2145 12.6577 19.0341 13.8664C19.8537 15.075 21.086 15.9433 22.5 16.3084V20.9959H16.5C16.1022 20.9959 15.7206 21.1539 15.4393 21.4352C15.158 21.7165 15 22.0981 15 22.4959C15 22.8937 15.158 23.2752 15.4393 23.5565C15.7206 23.8378 16.1022 23.9959 16.5 23.9959H22.5V36.4871C20.6663 35.0359 18.2737 34.3796 16.1437 33.7984C11.5819 32.5534 9 31.6253 9 26.9959C9 26.5981 8.84196 26.2165 8.56066 25.9352C8.27936 25.6539 7.89782 25.4959 7.5 25.4959C7.10218 25.4959 6.72064 25.6539 6.43934 25.9352C6.15804 26.2165 6 26.5981 6 26.9959C6 34.1415 11.1881 35.5571 15.3563 36.6934C19.9181 37.9384 22.5 38.8665 22.5 43.4959C22.5 43.8937 22.658 44.2752 22.9393 44.5565C23.2206 44.8378 23.6022 44.9959 24 44.9959C24.3978 44.9959 24.7794 44.8378 25.0607 44.5565C25.342 44.2752 25.5 43.8937 25.5 43.4959C25.5 38.8665 28.0819 37.9384 32.6438 36.6934C36.8119 35.5571 42 34.1415 42 26.9959C42 26.5981 41.842 26.2165 41.5607 25.9352C41.2794 25.6539 40.8978 25.4959 40.5 25.4959ZM21 10.4959C21 9.90253 21.1759 9.32251 21.5056 8.82917C21.8352 8.33582 22.3038 7.9513 22.8519 7.72424C23.4001 7.49717 24.0033 7.43776 24.5853 7.55352C25.1672 7.66928 25.7018 7.955 26.1213 8.37456C26.5409 8.79411 26.8266 9.32866 26.9424 9.91061C27.0581 10.4925 26.9987 11.0957 26.7716 11.6439C26.5446 12.1921 26.1601 12.6606 25.6667 12.9903C25.1734 13.3199 24.5933 13.4959 24 13.4959C23.2044 13.4959 22.4413 13.1798 21.8787 12.6172C21.3161 12.0546 21 11.2915 21 10.4959Z" fill="#C7AB17"/>
</g>
<defs>
<filter id="filter0_d_150_5895" x="-4" y="-0.00402832" width="56" height="56" filterUnits="userSpaceOnUse" color-interpolation-filters="sRGB">
<feFlood flood-opacity="0" result="BackgroundImageFix"/>
<feColorMatrix in="SourceAlpha" type="matrix" values="0 0 0 0 0 0 0 0 0 0 0 0 0 0 0 0 0 0 127 0" result="hardAlpha"/>
<feOffset dy="4"/>
<feGaussianBlur stdDeviation="2"/>
<feComposite in2="hardAlpha" operator="out"/>
<feColorMatrix type="matrix" values="0 0 0 0 0 0 0 0 0 0 0 0 0 0 0 0 0 0 0.25 0"/>
<feBlend mode="normal" in2="BackgroundImageFix" result="effect1_dropShadow_150_5895"/>
<feBlend mode="normal" in="SourceGraphic" in2="effect1_dropShadow_150_5895" result="shape"/>
</filter>
</defs>
</svg>
