<svg xmlns="http://www.w3.org/2000/svg" width="134" height="32" viewBox="0 0 134 32" fill="none">
  <path d="M70.7958 0.731817C68.3608 1.97322 68.9825 5.74915 71.6247 5.74915C74.5777 5.74915 76.1837 1.55942 73.5934 0.576642C72.0391 -0.0440588 72.35 -0.0440588 70.7958 0.731817Z" fill="#0F1A2B"/>
  <path d="M3.44603 3.42152C3.44603 3.78359 0.389411 21.2149 0.0785685 22.6632C-0.180467 23.8529 -0.12866 23.8529 5.62193 23.8529C10.2328 23.8529 11.9424 23.646 13.652 22.8701C17.3304 21.1632 18.6255 16.8183 16.1906 14.4907L14.9472 13.301L16.7087 11.6458C18.1075 10.3527 18.4701 9.62852 18.4701 8.1285C18.4701 5.54224 17.7966 4.40429 15.8279 3.73187C14.2219 3.16289 3.44603 2.90427 3.44603 3.42152ZM13.1858 8.7492C13.4448 10.663 12.4087 11.4389 9.55928 11.4389C7.12434 11.4389 6.96892 11.3872 7.27976 10.2492C7.43519 9.62852 7.59061 8.69747 7.59061 8.18022C7.59061 7.40435 8.00506 7.24917 10.3364 7.40435C12.7195 7.55952 13.0304 7.7147 13.1858 8.7492ZM11.6316 15.6804C11.9942 16.0424 12.2533 16.7666 12.2533 17.3873C12.2533 19.0942 11.2171 19.7149 8.2641 19.7149H5.57013L5.82916 18.008C5.98458 17.1287 6.19181 16.0424 6.34723 15.6804C6.55446 14.8527 10.8027 14.8527 11.6316 15.6804Z" fill="#0F1A2B"/>
  <path d="M115.349 3.36979C115.349 3.47324 116.437 5.80087 117.733 8.5423L120.116 13.5596L117.059 17.1804C115.401 19.1977 113.536 21.5253 112.863 22.3529L111.671 23.8529H114.469H117.266L125.607 13.8182C130.218 8.28367 134 3.62842 134 3.47324C134 3.31807 132.86 3.16289 131.461 3.16289C129.027 3.16289 128.819 3.26634 126.333 6.05949L123.794 9.00782L122.292 6.05949L120.841 3.16289H118.095C116.593 3.16289 115.349 3.26634 115.349 3.36979Z" fill="#0F1A2B"/>
  <path d="M58.6725 4.55943C58.5171 5.07668 57.9472 8.23191 57.3773 11.5423C56.2376 17.8528 56.0304 21.1114 56.7039 22.0942C57.8954 23.8529 63.1279 24.577 63.7496 23.0253C64.4231 21.2149 64.0605 19.7666 62.9207 19.6114C61.8328 19.4562 61.7291 19.1976 61.781 16.7665C61.9364 12.3699 62.299 11.4389 64.0087 11.4389C65.5629 11.4389 66.1328 10.7147 66.1328 8.54226C66.1328 7.55948 65.8737 7.30086 64.8376 7.30086C63.6978 7.30086 63.5424 7.09396 63.5424 5.49048C63.5424 3.68011 63.5424 3.68011 61.2629 3.68011C59.5014 3.68011 58.8798 3.887 58.6725 4.55943Z" fill="#0F1A2B"/>
  <path d="M24.2722 8.38712C18.4698 11.2837 17.1746 20.077 22.0445 22.9736C23.8577 24.0598 28.2095 24.1115 30.5408 23.1288C35.5661 21.0598 37.9493 14.232 35.1517 9.93887C33.3384 7.24917 28.1059 6.47329 24.2722 8.38712ZM29.9191 11.9561C30.6444 12.3699 30.9035 13.0424 30.9035 14.7493C30.9035 18.6287 27.2252 21.1632 24.9457 18.8356C23.6505 17.5424 24.2204 14.1286 25.9818 12.6286C27.4842 11.3354 28.4167 11.1803 29.9191 11.9561Z" fill="#0F1A2B"/>
  <path d="M42.405 8.18025C37.3279 10.6631 35.4111 19.0425 39.1412 22.4046C41.0062 24.0598 44.1665 24.3702 46.6532 23.0771C48.4146 22.146 48.5701 22.146 48.3628 22.9219C48.311 23.3874 49.0881 23.646 50.6942 23.7495L53.0773 23.9047L53.6472 21.1632C54.5279 16.6114 55.7713 9.16303 55.7713 8.18025C55.7713 7.4561 55.305 7.30093 53.4918 7.30093C51.9375 7.30093 51.1086 7.55955 50.9014 8.0768C50.6424 8.80095 50.4351 8.80095 49.0881 8.0768C47.0677 7.09403 44.5809 7.09403 42.405 8.18025ZM48.4146 12.2665C50.1243 13.4562 49.9689 16.3011 48.052 18.2149C46.2906 19.9736 44.7881 20.1287 43.3375 18.6804C41.5243 16.8701 42.3532 13.3528 44.8918 12.1114C46.5496 11.2838 47.0159 11.2838 48.4146 12.2665Z" fill="#0F1A2B"/>
  <path d="M68.2569 9.9906C67.946 11.4906 67.2725 15.2148 66.7027 18.2666L65.7701 23.8529H68.2569H70.7436L71.2617 21.1115C72.5569 14.5424 73.3858 9.68025 73.3858 8.5423C73.3858 7.40435 73.1786 7.3009 71.1063 7.3009H68.775L68.2569 9.9906Z" fill="#0F1A2B"/>
  <path d="M76.7526 7.92159C76.5454 8.59402 73.9032 22.9736 73.9032 23.5426C73.9032 23.6977 75.043 23.8529 76.3899 23.8529H78.9285L79.8092 18.6804C80.5863 14.3355 80.949 13.3527 82.0369 12.4734C83.5911 11.2837 84.7309 11.1803 86.0779 12.163C87.0104 12.8355 87.0104 13.1458 86.3887 16.9218C86.0779 19.1977 85.6116 21.6287 85.4562 22.4046C85.1972 23.8529 85.1972 23.8529 87.7357 23.8529H90.2743L91.155 18.5252C92.3465 11.3872 92.2947 10.6113 90.5333 8.80092C88.7719 7.09399 86.0261 6.78364 83.5393 8.07677C81.7261 9.00782 81.6743 9.00782 81.6743 8.07677C81.6743 7.09399 77.1152 6.93882 76.7526 7.92159Z" fill="#0F1A2B"/>
  <path d="M99.7349 7.61193C96.4193 8.95678 94.0361 12.8362 94.0361 16.8707C94.0361 19.819 94.6578 21.3191 96.3157 22.6639C97.6626 23.8019 101.341 23.8536 103.361 22.8191C104.864 22.0432 104.916 22.0432 104.916 23.3363C104.916 26.4916 100.253 28.4571 98.3361 26.1812C97.7145 25.4571 96.7819 25.1467 95.2277 25.1467C93.1036 25.1467 93 25.2502 93 26.6467C93 29.233 96.6783 31.871 100.253 31.871C103.413 31.871 107.402 29.4399 108.905 26.5433C109.578 25.2502 112.635 9.88783 112.687 7.66366C112.687 7.24986 111.858 7.04296 110.304 7.04296C108.387 7.04296 107.869 7.24986 107.661 8.07746C107.402 9.11196 107.402 9.11196 106.107 8.07746C104.657 6.9395 101.911 6.78433 99.7349 7.61193ZM105.848 12.681C107.506 14.6983 104.967 19.457 102.222 19.457C100.564 19.457 99.2169 17.9569 99.2169 16.1466C99.2169 12.2155 103.62 9.88783 105.848 12.681Z" fill="#0F1A2B"/>
  <path d="M125.245 18.6804C123.639 20.646 123.639 20.8011 124.416 22.3012C125.141 23.7495 125.4 23.8529 128.042 23.8529C129.596 23.8529 130.892 23.7495 130.892 23.5943C130.892 23.0253 127.524 16.6114 127.265 16.6114C127.058 16.6114 126.177 17.5425 125.245 18.6804Z" fill="#0F1A2B"/>
</svg>