<svg width="24" height="24" viewBox="0 0 24 24" fill="none" xmlns="http://www.w3.org/2000/svg">
<path d="M12.645 0.578446C12.4559 0.446144 12.2308 0.375183 12 0.375183C11.7692 0.375183 11.5441 0.446144 11.355 0.578446C9.90537 1.64679 8.57909 2.87308 7.40063 4.2347C4.76719 7.25907 3.375 10.4653 3.375 13.5C3.375 15.7875 4.2837 17.9813 5.9012 19.5988C7.51871 21.2163 9.71251 22.125 12 22.125C14.2875 22.125 16.4813 21.2163 18.0988 19.5988C19.7163 17.9813 20.625 15.7875 20.625 13.5C20.625 6.24751 12.9713 0.806258 12.645 0.578446ZM17.9634 15.75H6.03656C5.85356 15.2669 5.73076 14.7631 5.67094 14.25H18.3272C18.268 14.763 18.1458 15.2668 17.9634 15.75ZM9.06562 5.74595C9.9595 4.71918 10.9414 3.77245 12 2.91657C13.0586 3.77245 14.0405 4.71918 14.9344 5.74595C16.2469 7.26376 17.7722 9.48563 18.2344 12H5.76562C6.22781 9.48563 7.75219 7.26376 9.06562 5.74595ZM12 19.875C11.1615 19.8756 10.3312 19.7102 9.55698 19.3884C8.78272 19.0666 8.07981 18.5947 7.48875 18H16.5112C15.9202 18.5947 15.2173 19.0666 14.443 19.3884C13.6688 19.7102 12.8385 19.8756 12 19.875Z" fill="#6C757D"/>
</svg>
