<svg width="168" height="32" viewBox="0 0 168 32" fill="none" xmlns="http://www.w3.org/2000/svg">
<path d="M137.59 0.0656738C147.436 0.0656738 157.283 0.0656738 167.427 0.0656738C167.35 0.529651 167.262 0.930219 167.123 1.37424C167.088 1.48629 167.054 1.59833 167.018 1.71377C166.907 2.04788 166.787 2.37645 166.663 2.70547C164.661 7.98101 164.386 13.3107 164.253 18.8879C163.713 18.8905 163.172 18.8924 162.632 18.8937C162.448 18.8942 162.263 18.8949 162.079 18.8958C161.816 18.8971 161.552 18.8977 161.288 18.8982C161.205 18.8987 161.122 18.8993 161.037 18.8998C160.839 18.8999 160.642 18.8944 160.444 18.8879C160.266 18.7101 160.325 18.4908 160.325 18.247C160.324 18.1325 160.324 18.018 160.324 17.9C160.324 17.712 160.324 17.712 160.324 17.5202C160.324 17.3911 160.324 17.262 160.324 17.129C160.324 16.8538 160.324 16.5787 160.324 16.3036C160.325 15.8888 160.325 15.4742 160.324 15.0594C160.322 11.2438 160.322 11.2438 160.702 9.39746C160.751 9.14995 160.799 8.9024 160.847 8.65479C160.87 8.53978 160.892 8.42477 160.916 8.30627C160.983 7.94341 161.03 7.58307 161.072 7.21652C161.205 6.217 161.527 5.25743 161.82 4.29538C161.866 4.13747 161.913 3.97955 161.96 3.8216C162.189 3.0586 162.45 2.32637 162.791 1.60431C162.892 1.28948 162.878 1.11704 162.772 0.805872C162.448 0.643859 162.178 0.675874 161.82 0.70013C161.263 0.940122 161.076 1.31497 160.837 1.85256C159.708 4.78816 158.994 7.79449 158.685 10.9185C158.646 11.2692 158.592 11.6155 158.538 11.9642C158.359 13.2739 158.355 14.6009 158.315 15.9205C158.306 16.1985 158.296 16.4766 158.287 16.7546C158.265 17.4304 158.243 18.1063 158.222 18.7821C157.812 18.8037 157.402 18.8168 156.992 18.8284C156.818 18.8377 156.818 18.8377 156.641 18.8472C155.797 18.8651 155.797 18.8651 155.465 18.6238C155.304 18.437 155.173 18.2548 155.048 18.0419C154.991 17.9506 154.933 17.8593 154.874 17.7652C154.813 17.647 154.813 17.647 154.75 17.5264C154.609 17.2358 154.609 17.2358 154.413 16.9845C154.15 15.893 154.172 14.7815 154.18 13.6667C154.182 13.3689 154.182 13.071 154.182 12.7732C154.182 12.5805 154.183 12.3878 154.184 12.1951C154.184 12.1077 154.184 12.0204 154.184 11.9303C154.198 10.2207 154.198 10.2207 154.413 10.0055C154.442 9.85734 154.465 9.70808 154.485 9.55856C154.498 9.46682 154.511 9.37508 154.525 9.28057C154.551 9.08782 154.578 8.89506 154.604 8.70229C154.68 8.16809 154.788 7.66884 154.942 7.15043C154.989 6.8931 155.033 6.63531 155.074 6.37719C155.216 5.56696 155.46 4.81117 155.729 4.03557C155.896 3.55721 156.047 3.07545 156.192 2.59028C156.225 2.48336 156.225 2.48336 156.258 2.37428C156.403 1.88573 156.477 1.41632 156.529 0.911615C156.107 0.712957 155.771 0.673408 155.306 0.672765C155.167 0.672098 155.029 0.671432 154.886 0.670745C154.736 0.671123 154.586 0.671557 154.436 0.672042C154.281 0.671899 154.126 0.671694 153.971 0.671429C153.648 0.671118 153.324 0.671569 153 0.672558C152.585 0.673764 152.171 0.673068 151.756 0.671803C151.436 0.671038 151.117 0.671282 150.798 0.67183C150.645 0.671971 150.492 0.671798 150.339 0.671305C150.125 0.670767 149.911 0.671733 149.698 0.672765C149.515 0.673017 149.515 0.673017 149.329 0.673275C149.026 0.699351 148.85 0.753706 148.594 0.911615C148.657 1.42232 148.759 1.89875 148.905 2.39201C148.958 2.57521 148.958 2.57521 149.013 2.76211C149.067 2.94531 149.067 2.94531 149.123 3.13221C149.156 3.24985 149.189 3.36748 149.223 3.48868C149.329 3.85405 149.444 4.21499 149.563 4.57662C149.976 5.84975 150.256 7.10611 150.449 8.43215C150.489 8.67903 150.538 8.91223 150.604 9.15294C150.94 10.4321 150.958 11.7229 150.955 13.0359C150.955 13.3359 150.957 13.6358 150.96 13.9357C150.965 15.452 150.919 16.8879 149.969 18.1477C149.931 18.2114 149.892 18.275 149.853 18.3406C149.62 18.6804 149.458 18.8625 149.045 18.9471C148.702 18.9607 148.368 18.9525 148.025 18.9341C147.907 18.9308 147.789 18.9275 147.667 18.924C147.376 18.9153 147.086 18.9032 146.795 18.8879C146.792 18.6845 146.792 18.6845 146.789 18.477C146.708 13.4074 146.495 8.40715 144.891 3.54857C144.848 3.41849 144.805 3.28841 144.761 3.15439C144.362 1.81265 144.362 1.81265 143.511 0.775977C143.265 0.686114 143.069 0.675555 142.807 0.680303C142.724 0.680985 142.641 0.681666 142.555 0.682368C142.35 0.678205 142.35 0.678205 142.245 0.805872C142.291 1.39919 142.467 1.88581 142.695 2.43167C143.511 4.46394 143.953 6.56371 144.322 8.71675C144.355 8.90458 144.355 8.90458 144.388 9.09622C144.748 11.2587 144.817 13.3915 144.805 15.5817C144.804 15.8705 144.804 16.1593 144.804 16.4482C144.804 16.7938 144.803 17.1395 144.802 17.4851C144.802 17.6141 144.802 17.743 144.802 17.8759C144.801 17.9936 144.801 18.1114 144.8 18.2327C144.8 18.3366 144.799 18.4405 144.799 18.5475C144.785 18.7821 144.785 18.7821 144.679 18.8879C144.397 18.8972 144.117 18.9001 143.835 18.8982C143.751 18.898 143.667 18.8979 143.58 18.8977C143.309 18.8971 143.038 18.8958 142.768 18.8945C142.585 18.8939 142.402 18.8935 142.219 18.893C141.769 18.8919 141.319 18.89 140.87 18.8879C140.811 17.7719 140.763 16.6584 140.752 15.5409C140.705 11.1686 140.009 7.07989 138.552 2.93637C138.367 2.40438 138.19 1.86945 138.013 1.33459C137.954 1.15613 137.894 0.977688 137.835 0.799264C137.753 0.554734 137.671 0.310204 137.59 0.0656738Z" fill="white"/>
<path d="M105.53 16.6674C108.359 16.6674 111.187 16.6674 114.101 16.6674C114.021 17.1421 113.948 17.4632 113.772 17.8937C113.727 18.004 113.682 18.1142 113.636 18.2278C113.589 18.3432 113.541 18.4585 113.492 18.5773C113.395 18.8158 113.298 19.0543 113.202 19.2928C113.132 19.463 113.132 19.463 113.062 19.6366C112.916 19.9958 112.777 20.3564 112.639 20.7186C112.478 21.1433 112.307 21.5626 112.13 21.9809C111.948 22.4123 111.788 22.8432 111.646 23.2892C111.554 23.5632 111.449 23.8301 111.34 24.0983C111.302 24.1922 111.264 24.2862 111.225 24.383C111.197 24.454 111.168 24.5249 111.138 24.5981C111.891 24.599 112.644 24.5951 113.397 24.5877C113.653 24.5858 113.909 24.585 114.165 24.5854C114.534 24.5857 114.902 24.5819 115.271 24.5774C115.385 24.5784 115.498 24.5793 115.616 24.5803C116.29 24.5674 116.695 24.4654 117.217 24.0288C117.485 23.7488 117.623 23.4787 117.784 23.1243C117.87 22.9396 117.87 22.9396 117.958 22.7513C118.234 22.1201 118.501 21.4878 118.752 20.8463C118.811 20.6954 118.87 20.5446 118.93 20.3938C119.021 20.1604 119.113 19.9271 119.204 19.6937C120.177 17.2104 120.177 17.2104 120.449 16.6674C123.277 16.6674 126.105 16.6674 129.019 16.6674C128.703 17.9304 128.217 19.1545 127.75 20.3684C127.71 20.4713 127.671 20.5742 127.63 20.6802C127.477 21.072 127.315 21.4493 127.122 21.8231C126.903 22.2565 126.741 22.6978 126.586 23.1573C126.531 23.3163 126.476 23.4752 126.421 23.634C126.382 23.7471 126.382 23.7471 126.342 23.8625C126.221 24.2025 126.087 24.5359 125.949 24.869C125.872 25.0591 125.801 25.2511 125.732 25.444C124.813 27.9806 123.169 29.7798 120.745 30.9599C120.304 31.1649 119.855 31.3294 119.391 31.4713C119.318 31.4938 119.244 31.5163 119.169 31.5395C118.051 31.8488 116.884 31.8033 115.735 31.8006C115.559 31.8005 115.384 31.8006 115.209 31.8006C114.736 31.8006 114.263 31.8 113.79 31.7993C113.294 31.7986 112.799 31.7986 112.304 31.7984C111.367 31.7981 110.43 31.7972 109.493 31.7962C108.426 31.795 107.359 31.7944 106.292 31.7939C104.098 31.7928 101.905 31.7909 99.7109 31.7886C99.7787 31.4331 99.8622 31.1181 100.002 30.784C100.176 30.3611 100.342 29.9361 100.504 29.5085C100.653 29.1196 100.806 28.7366 100.981 28.3585C101.22 27.835 101.402 27.2929 101.592 26.7501C101.697 26.4614 101.81 26.1851 101.939 25.9066C102.153 25.4454 102.306 24.9706 102.463 24.4878C102.585 24.1242 102.726 23.7714 102.871 23.4167C103.023 23.0373 103.166 22.6547 103.308 22.2717C103.514 21.7217 103.724 21.1744 103.944 20.6302C104.209 19.9682 104.462 19.3008 104.714 18.6339C104.759 18.5171 104.803 18.4003 104.849 18.2799C104.889 18.1758 104.928 18.0717 104.969 17.9644C105.144 17.5271 105.339 17.0978 105.53 16.6674Z" fill="white"/>
<path d="M111.88 0.0657458C113.687 0.0558294 115.494 0.048389 117.302 0.0438308C118.141 0.0416574 118.98 0.0386985 119.82 0.0338372C120.552 0.0295981 121.284 0.026887 122.017 0.0259492C122.404 0.0254017 122.791 0.024131 123.178 0.0210251C126.855 -0.00733398 126.855 -0.00733404 128.399 0.911687C128.468 0.951975 128.537 0.992263 128.609 1.03377C130.34 2.08355 131.394 3.58364 132.089 5.45862C132.617 7.69724 131.868 9.73687 131.023 11.7736C130.792 12.3398 130.585 12.9136 130.396 13.4951C130.326 13.4951 130.256 13.4951 130.184 13.4951C130.175 13.5758 130.167 13.6565 130.158 13.7396C130.049 14.2728 129.841 14.7813 129.655 15.2927C126.827 15.2927 123.999 15.2927 121.085 15.2927C121.164 14.7351 121.217 14.4342 121.435 13.9511C121.611 13.5449 121.771 13.1438 121.905 12.7218C122.186 11.8504 122.534 11.0037 122.871 10.1526C122.909 10.0555 122.947 9.95845 122.986 9.85843C123.055 9.68333 123.125 9.50842 123.195 9.3338C123.392 8.83309 123.465 8.5218 123.307 7.99645C123.047 7.70116 123.047 7.70116 122.778 7.46773C122.778 7.39794 122.778 7.32815 122.778 7.25625C121.137 7.25625 119.496 7.25625 117.805 7.25625C117.595 7.84946 117.386 8.44268 117.17 9.05387C116.917 9.72706 116.657 10.3942 116.376 11.0564C116.129 11.6415 115.917 12.2359 115.711 12.8366C115.583 13.1778 115.583 13.1778 115.422 13.4938C115.254 13.8347 115.146 14.168 115.041 14.5327C114.853 15.1763 114.853 15.1763 114.736 15.2927C114.469 15.3027 114.205 15.306 113.938 15.3047C113.812 15.3047 113.812 15.3047 113.684 15.3047C113.407 15.3047 113.129 15.3038 112.851 15.303C112.659 15.3028 112.467 15.3027 112.275 15.3026C111.769 15.3022 111.263 15.3011 110.756 15.2999C110.24 15.2989 109.724 15.2984 109.207 15.2979C108.194 15.2967 107.18 15.2949 106.166 15.2927C106.224 14.8632 106.277 14.4815 106.45 14.0833C106.648 13.6136 106.829 13.1401 107.006 12.6623C107.196 12.1506 107.393 11.6445 107.608 11.1423C107.782 10.7327 107.933 10.3231 108.071 9.89981C108.238 9.38385 108.435 8.88902 108.647 8.39009C109.193 7.09379 109.704 5.77752 110.159 4.44622C110.275 4.13222 110.4 3.82598 110.53 3.51774C110.829 2.80411 111.108 2.08365 111.384 1.36109C111.432 1.23569 111.48 1.11029 111.529 0.981081C111.646 0.676032 111.763 0.37092 111.88 0.0657458Z" fill="white"/>
<path d="M83.1003 0.0657277C84.9058 0.0533277 86.7114 0.0440295 88.517 0.038334C89.3555 0.0356181 90.194 0.0319213 91.0325 0.0258419C91.7641 0.0205401 92.4957 0.0171536 93.2274 0.0159819C93.6141 0.015298 94.0008 0.0137129 94.3875 0.00982686C97.4834 -0.020065 97.4834 -0.020065 98.8655 0.594441C99.0458 0.673328 99.0458 0.673328 99.2298 0.753808C99.9229 1.07028 100.517 1.46632 101.087 1.9691C101.167 2.03848 101.246 2.10786 101.328 2.17934C102.446 3.22189 103.323 4.69725 103.434 6.24878C103.441 6.54936 103.445 6.84984 103.448 7.15049C103.451 7.25258 103.454 7.35468 103.458 7.45987C103.469 8.77279 102.951 9.93843 102.476 11.1423C102.113 12.073 101.763 13.0054 101.442 13.9515C101.275 14.407 101.073 14.8493 100.876 15.2927C98.0476 15.2927 95.2194 15.2927 92.3055 15.2927C92.3872 14.8024 92.4812 14.4232 92.6493 13.9643C92.6967 13.8349 92.744 13.7056 92.7928 13.5723C93.0763 12.8141 93.3658 12.0586 93.6677 11.3075C93.7172 11.1832 93.7172 11.1832 93.7677 11.0564C93.8388 10.8796 93.9102 10.7029 93.983 10.5268C94.0863 10.2764 94.1879 10.0254 94.2893 9.77423C94.323 9.69378 94.3567 9.61333 94.3914 9.53044C94.5882 9.0387 94.6919 8.64087 94.6332 8.10217C94.4322 7.69625 94.0979 7.42457 93.681 7.25623C93.4506 7.22214 93.4506 7.22214 93.2055 7.22251C93.1124 7.22041 93.0192 7.21831 92.9232 7.21615C92.8235 7.21492 92.7239 7.2137 92.6212 7.21244C92.5185 7.2104 92.4158 7.20835 92.3099 7.20624C91.9822 7.19992 91.6545 7.19501 91.3268 7.19014C91.1044 7.1861 90.882 7.18197 90.6597 7.17775C90.1149 7.1676 89.5702 7.15871 89.0255 7.15049C89.0047 7.24827 89.0047 7.24827 88.9834 7.34802C88.9649 7.43362 88.9464 7.51921 88.9272 7.6074C88.909 7.69222 88.8908 7.77704 88.872 7.86442C88.8018 8.15133 88.6947 8.40012 88.5626 8.66393C88.321 9.17084 88.1416 9.68002 87.9703 10.2141C87.8246 10.6431 87.6464 11.0554 87.4685 11.4719C87.3233 11.8256 87.1946 12.1826 87.068 12.5434C86.8285 13.2246 86.5598 13.8893 86.2745 14.5525C86.1697 14.7967 86.065 15.041 85.9571 15.2927C83.1288 15.2927 80.3006 15.2927 77.3867 15.2927C77.5764 14.3449 77.9224 13.4652 78.3018 12.5789C78.47 12.164 78.6165 11.7438 78.7622 11.3207C78.9729 10.7099 79.2091 10.1259 79.4867 9.54167C79.6659 9.1357 79.7952 8.71638 79.9306 8.29424C80.0179 8.0376 80.1154 7.79873 80.2303 7.55363C80.4415 7.09918 80.603 6.6324 80.7659 6.15915C80.9789 5.54127 81.2166 4.95029 81.4975 4.35946C81.6742 3.9587 81.8002 3.54451 81.9335 3.12772C82.0388 2.82486 82.1624 2.54266 82.3001 2.25328C82.5221 1.78526 82.6929 1.31273 82.8527 0.821209C82.8887 0.711802 82.8887 0.711802 82.9255 0.600185C82.984 0.422129 83.0422 0.243941 83.1003 0.0657277Z" fill="white"/>
<path d="M61.6506 0.0442955C61.7426 0.0439965 61.8346 0.0436976 61.9294 0.0433895C62.4159 0.0418127 62.9024 0.0408313 63.3888 0.0403715C63.8878 0.0397914 64.3868 0.0372481 64.8857 0.0342414C65.2728 0.0322605 65.6598 0.0317207 66.0469 0.0315593C66.2307 0.031242 66.4146 0.0304023 66.5984 0.0290019C69.0481 0.0116635 70.976 0.708088 72.7975 2.39211C74.0794 3.72092 74.7388 5.38362 74.788 7.22323C74.7492 8.41776 74.4173 9.44276 73.9597 10.5376C73.7766 10.9798 73.6207 11.43 73.4654 11.8825C73.2566 12.4872 73.0235 13.0674 72.7487 13.6459C72.5712 14.0381 72.4289 14.4409 72.2866 14.847C72.2023 15.0812 72.2023 15.0812 72.0965 15.2927C69.2683 15.2927 66.4401 15.2927 63.5262 15.2927C63.7013 14.4176 63.9982 13.5993 64.3726 12.7908C64.54 12.3994 64.6643 11.9947 64.7959 11.5901C65.0383 10.8669 65.3396 10.1694 65.6601 9.4777C65.851 9.01726 65.9055 8.60079 65.8539 8.10222C65.5535 7.64754 65.3137 7.41393 64.7959 7.25628C64.2974 7.2172 63.7988 7.22144 63.299 7.2229C63.0578 7.22323 62.8166 7.22075 62.5754 7.21807C62.4207 7.21783 62.2661 7.21775 62.1114 7.21786C61.902 7.21739 61.902 7.21739 61.6884 7.21691C60.9555 7.29201 60.5492 7.63884 60.0974 8.18441C59.8302 8.55677 59.6671 8.9443 59.5055 9.37113C59.4458 9.521 59.4458 9.521 59.3848 9.6739C59.1265 10.3298 58.8898 10.9919 58.6591 11.6578C58.4838 12.1633 58.3004 12.6543 58.0705 13.1382C57.7546 13.8345 57.5255 14.5674 57.2836 15.2927C54.4204 15.2927 51.5573 15.2927 48.6074 15.2927C48.6886 14.8059 48.7739 14.4582 48.9513 14.0106C48.9989 13.8898 49.0465 13.769 49.0955 13.6446C49.2274 13.3202 49.363 12.9978 49.5002 12.6756C49.7511 12.0809 49.9653 11.4763 50.1773 10.867C50.3477 10.3786 50.5282 9.8966 50.7244 9.4178C50.8493 9.1107 50.9684 8.80163 51.0873 8.49214C51.1319 8.37601 51.1765 8.25987 51.2224 8.14022C51.3122 7.90569 51.4017 7.67107 51.4911 7.43637C51.6219 7.09382 51.7542 6.75194 51.8874 6.41033C51.9286 6.30347 51.9698 6.1966 52.0122 6.0865C52.9536 3.72542 54.6194 1.74942 56.9662 0.70023C58.5134 0.082392 60.0052 0.0479251 61.6506 0.0442955Z" fill="white"/>
<path d="M76.751 16.6674C84.5024 16.6674 92.2538 16.6674 100.24 16.6674C100.133 17.2029 100.034 17.4057 99.7111 17.8305C99.6684 17.8883 99.6257 17.9461 99.5817 18.0057C98.6808 19.0621 97.025 19.5752 95.6904 19.7339C95.3005 19.7537 94.9164 19.7554 94.5265 19.7339C94.5485 19.8205 94.5705 19.907 94.5931 19.9962C94.7131 20.4724 94.8316 20.9491 94.9498 21.4258C94.9759 21.5307 95.002 21.6357 95.0289 21.7438C95.4625 23.4935 95.8616 25.2481 96.2363 27.0112C96.4046 27.8022 96.5773 28.5918 96.7621 29.3792C96.7792 29.4521 96.7963 29.525 96.8139 29.6001C96.936 30.1154 97.073 30.6252 97.223 31.133C97.2775 31.3656 97.2775 31.3656 97.2775 31.7886C94.4144 31.7886 91.5513 31.7886 88.6014 31.7886C88.1914 29.6341 88.1914 29.6341 88.0633 28.9606C88.0291 28.7811 87.9949 28.6016 87.9607 28.4221C87.9349 28.2864 87.9349 28.2864 87.9086 28.1479C87.8059 27.6088 87.7001 27.0703 87.5919 26.5323C87.2491 24.8241 86.9244 23.1119 86.6043 21.3993C86.5815 21.2786 86.5588 21.158 86.5353 21.0336C86.5044 20.8671 86.5044 20.8671 86.4728 20.6971C86.4547 20.6001 86.4366 20.503 86.4179 20.4029C86.3794 20.1569 86.3794 20.1569 86.3794 19.8396C85.6462 19.8396 84.9129 19.8396 84.1575 19.8396C84.1226 19.9792 84.0876 20.1188 84.0517 20.2626C83.8458 20.9301 83.6174 21.5759 83.3243 22.2098C83.1384 22.6367 82.9807 23.0741 82.8192 23.5106C82.6385 23.9978 82.4489 24.4802 82.253 24.9615C82.0216 25.534 81.8082 26.1101 81.6049 26.6931C81.355 27.4096 81.088 28.1145 80.7943 28.8144C80.4283 29.6874 80.0733 30.5537 79.7905 31.4581C79.7136 31.6828 79.7136 31.6828 79.6078 31.7886C79.3374 31.7986 79.0698 31.8018 78.7993 31.8006C78.6724 31.8006 78.6724 31.8006 78.5429 31.8006C78.2618 31.8005 77.9807 31.7997 77.6996 31.7989C77.5052 31.7987 77.3108 31.7985 77.1164 31.7984C76.6038 31.798 76.0912 31.797 75.5786 31.7958C75.0559 31.7947 74.5332 31.7943 74.0106 31.7937C72.9843 31.7926 71.958 31.7908 70.9316 31.7886C71.0499 31.3692 71.1683 30.9606 71.3354 30.5581C71.5958 29.9209 71.8423 29.2787 72.0889 28.6361C72.178 28.4041 72.2672 28.1721 72.3563 27.9401C72.4223 27.7683 72.4223 27.7683 72.4896 27.593C72.6281 27.2325 72.7668 26.8721 72.9056 26.5118C73.0398 26.1632 73.1738 25.8147 73.3061 25.4655C73.4885 24.9854 73.6707 24.5086 73.8876 24.0429C74.1304 23.5115 74.3148 22.9604 74.5065 22.4091C74.6784 21.9157 74.8599 21.4288 75.0585 20.9454C75.1867 20.6293 75.3073 20.3105 75.4284 19.9916C75.5789 19.5981 75.7344 19.2109 75.9112 18.8285C76.1271 18.3566 76.2846 17.8701 76.441 17.3758C76.5394 17.0903 76.5394 17.0903 76.751 16.6674Z" fill="white"/>
<path d="M47.9714 16.6674C50.7996 16.6674 53.6279 16.6674 56.5418 16.6674C56.5418 17.1673 56.5131 17.3157 56.3037 17.738C56.026 18.3219 55.8026 18.9125 55.5895 19.5224C55.0823 20.9588 55.0823 20.9588 54.8356 21.5712C54.8021 21.6546 54.7685 21.738 54.734 21.824C54.671 21.9777 54.6066 22.1309 54.5405 22.2833C54.327 22.7978 54.2649 23.1938 54.3198 23.7521C54.493 24.1313 54.6044 24.259 54.9547 24.4923C55.2366 24.5156 55.5071 24.527 55.7891 24.5278C55.9123 24.5289 55.9123 24.5289 56.0379 24.53C56.2118 24.531 56.3856 24.5315 56.5595 24.5315C56.8234 24.532 57.087 24.5358 57.3508 24.5398C57.5202 24.5404 57.6896 24.5409 57.859 24.5411C57.9369 24.5426 58.0149 24.5441 58.0952 24.5457C58.6211 24.5411 58.9794 24.4211 59.4361 24.1602C59.6102 24.0693 59.6102 24.0693 59.8218 24.0693C59.8611 23.9876 59.8611 23.9876 59.9011 23.9041C60.0041 23.7034 60.1172 23.5078 60.2339 23.3147C60.4694 22.9039 60.6199 22.4823 60.7674 22.0338C60.9792 21.4105 61.2161 20.816 61.499 20.2209C61.6753 19.821 61.8011 19.4078 61.9342 18.992C62.0762 18.5828 62.2537 18.196 62.4409 17.8057C62.6086 17.4338 62.7469 17.0493 62.8902 16.6674C65.7184 16.6674 68.5466 16.6674 71.4605 16.6674C71.3863 17.1126 71.3365 17.3911 71.1696 17.7843C70.799 18.6786 70.4545 19.5814 70.1313 20.4939C69.9515 21.0012 69.7627 21.5025 69.5593 22.0008C69.4304 22.3208 69.3082 22.6431 69.1857 22.9657C69.0369 23.3545 68.8839 23.7376 68.7095 24.1156C68.5326 24.5001 68.3994 24.8903 68.2665 25.292C67.4322 27.6623 65.8075 29.7012 63.5263 30.7968C62.1954 31.4058 60.8911 31.8032 59.4155 31.8056C59.336 31.8061 59.2566 31.8066 59.1748 31.8072C58.914 31.8087 58.6533 31.8095 58.3926 31.81C58.3027 31.8103 58.2129 31.8106 58.1204 31.8109C57.6447 31.8125 57.1691 31.8135 56.6935 31.814C56.2058 31.8145 55.7181 31.8171 55.2304 31.8201C54.8522 31.8221 54.4741 31.8226 54.0959 31.8228C53.9163 31.8231 53.7367 31.8239 53.5571 31.8253C52.1694 31.8354 50.88 31.7358 49.6313 31.0682C49.5597 31.0311 49.4881 30.9941 49.4143 30.9559C48.8931 30.6803 48.4219 30.3722 47.9714 29.9909C47.8176 29.8797 47.8176 29.8797 47.6606 29.7662C46.7562 28.9928 46.176 27.9101 45.7495 26.8187C45.7212 26.7486 45.6928 26.6785 45.6636 26.6063C45.424 25.9664 45.3748 25.3773 45.3792 24.6972C45.3796 24.5906 45.3801 24.484 45.3805 24.3742C45.4021 23.417 45.6087 22.6259 45.9611 21.743C46.0054 21.6216 46.0498 21.5001 46.0954 21.375C46.2959 20.8324 46.5164 20.3041 46.7613 19.7802C46.9452 19.385 47.0966 18.992 47.2308 18.5773C47.4448 17.9289 47.7087 17.2976 47.9714 16.6674Z" fill="white"/>
<path d="M20.0885 0.0537214C20.2502 0.0537513 20.412 0.0537344 20.5737 0.0536746C21.0093 0.0536445 21.4449 0.0542628 21.8806 0.0550042C22.3371 0.0556688 22.7936 0.0557276 23.2502 0.0558528C24.1131 0.0561805 24.9761 0.0570468 25.839 0.0581104C26.8221 0.0592956 27.8052 0.0598745 28.7883 0.0604045C30.8092 0.0615075 32.8301 0.0633654 34.8509 0.0657259C34.7791 0.440732 34.6863 0.784673 34.5534 1.14298C34.5199 1.2339 34.4865 1.32482 34.4521 1.41849C34.3465 1.69342 34.2384 1.96684 34.1285 2.24006C33.8711 2.8808 33.6236 3.52521 33.3763 4.16986C33.1088 4.86586 33.1088 4.86586 32.9762 5.21102C32.8817 5.45739 32.7873 5.70382 32.693 5.95029C32.6218 6.13607 32.6218 6.13607 32.5492 6.32561C32.5062 6.43816 32.4632 6.5507 32.4188 6.66666C32.3116 6.939 32.3116 6.939 32.2058 7.15048C32.1421 7.15074 32.0784 7.15099 32.0129 7.15125C30.4621 7.15751 28.9113 7.1655 27.3605 7.17541C26.6106 7.18016 25.8607 7.18433 25.1107 7.18712C24.3869 7.18981 23.6632 7.19414 22.9394 7.19946C22.6633 7.20123 22.3872 7.20244 22.1111 7.2031C21.7243 7.20412 21.3376 7.20709 20.9508 7.21051C20.8367 7.21035 20.7226 7.2102 20.6051 7.21005C19.9785 7.21788 19.5363 7.28161 18.9799 7.57345C18.8992 7.60617 18.8184 7.63888 18.7353 7.67259C18.2898 7.9529 18.1299 8.72761 17.9417 9.19925C17.8853 9.34012 17.8853 9.34012 17.8278 9.48384C17.561 10.1549 17.3111 10.8295 17.0762 11.5124C16.9696 11.8032 16.9696 11.8032 16.758 12.2261C20.1798 12.2261 23.6016 12.2261 27.1271 12.2261C27.0534 12.5941 26.9785 12.9056 26.8563 13.2542C26.8242 13.346 26.7921 13.4378 26.759 13.5324C26.7255 13.627 26.692 13.7215 26.6575 13.8189C26.6079 13.9613 26.6079 13.9613 26.5573 14.1066C26.4123 14.5187 26.2651 14.9006 26.069 15.2927C19.7491 15.2927 13.4293 15.2927 6.91797 15.2927C7.02272 14.9786 7.12747 14.6646 7.23539 14.341C7.27126 14.231 7.30713 14.121 7.34409 14.0076C7.53174 13.4338 7.73359 12.8711 7.9624 12.3125C8.11177 11.94 8.25238 11.5645 8.39265 11.1885C9.18386 9.07269 9.18386 9.07269 9.45072 8.4987C9.61821 8.13324 9.75233 7.76129 9.88156 7.38071C10.8569 4.51478 12.3134 2.35868 14.9973 0.879862C16.6043 0.0980044 18.3384 0.0491491 20.0885 0.0537214Z" fill="white"/>
<path d="M34.1103 16.6674C36.9386 16.6674 39.7668 16.6674 42.6807 16.6674C42.5912 17.1144 42.4749 17.5324 42.3302 17.9627C42.2946 18.0692 42.2946 18.0692 42.2583 18.1778C42.108 18.6192 41.9368 19.0401 41.7392 19.4617C41.5116 19.9931 41.3318 20.5431 41.1428 21.0891C40.9103 21.7573 40.6603 22.4114 40.3728 23.0582C40.1315 23.6133 39.9245 24.1702 39.7313 24.7435C39.2581 26.1227 38.6257 27.3708 37.7078 28.5105C37.6506 28.585 37.5935 28.6594 37.5346 28.7361C36.645 29.8339 35.2717 30.7938 33.9099 31.1921C33.6826 31.2568 33.6826 31.2568 33.4555 31.3592C31.6798 32.0286 29.6157 31.8304 27.7488 31.8207C27.2943 31.8187 26.8397 31.8186 26.3851 31.8182C25.5275 31.8172 24.6698 31.8146 23.8121 31.8114C22.8344 31.8078 21.8566 31.8061 20.8789 31.8045C18.8704 31.8012 16.862 31.7957 14.8535 31.7886C14.925 31.3267 15.0309 30.9281 15.204 30.4932C15.2519 30.372 15.2997 30.2509 15.3491 30.126C15.395 30.0116 15.441 29.8973 15.4884 29.7794C15.5393 29.6521 15.5393 29.6521 15.5913 29.5221C15.6574 29.357 15.7237 29.1919 15.7901 29.0269C16.2378 27.9037 16.6701 26.7744 17.1003 25.6443C17.1388 25.543 17.1774 25.4418 17.2172 25.3374C17.311 25.091 17.4049 24.8445 17.4987 24.5981C17.5957 24.5981 17.5957 24.5981 17.6946 24.5982C19.2702 24.5989 20.8457 24.5962 22.4212 24.5896C23.1831 24.5865 23.945 24.5845 24.707 24.5854C25.3713 24.5861 26.0356 24.5846 26.7 24.5805C27.0516 24.5783 27.403 24.5777 27.7546 24.579C28.1478 24.5803 28.5407 24.5776 28.9339 24.574C29.1074 24.576 29.1074 24.576 29.2844 24.578C30.052 24.5654 30.4923 24.3976 31.0419 23.8579C31.3607 23.5138 31.5491 23.1879 31.7231 22.7542C31.7677 22.6431 31.8123 22.532 31.8582 22.4175C32.0443 21.9287 32.218 21.4359 32.3914 20.9425C32.5505 20.5049 32.7301 20.0783 32.9126 19.65C33.1044 19.1844 33.2789 18.7129 33.4511 18.2397C33.6492 17.7014 33.8757 17.1951 34.1103 16.6674Z" fill="white"/>
<path d="M6.90181 16.6537C7.01251 16.6541 7.01251 16.6541 7.12544 16.6546C7.2033 16.6545 7.28116 16.6544 7.36138 16.6543C7.62425 16.6541 7.88712 16.6547 8.14998 16.6553C8.33764 16.6553 8.52529 16.6553 8.71294 16.6552C9.22402 16.6552 9.73511 16.6558 10.2462 16.6566C10.7797 16.6572 11.3132 16.6573 11.8467 16.6574C12.8577 16.6578 13.8687 16.6586 14.8797 16.6597C16.0304 16.6609 17.1811 16.6614 18.3317 16.662C20.6995 16.6631 23.0672 16.6649 25.4349 16.6673C25.3855 16.8335 25.3359 16.9996 25.2863 17.1657C25.2588 17.2582 25.2312 17.3507 25.2028 17.446C25.0768 17.8577 24.9369 18.2639 24.7934 18.6698C24.7664 18.7481 24.7393 18.8264 24.7114 18.9071C24.5908 19.2495 24.4735 19.536 24.271 19.8396C24.0797 19.8786 24.0797 19.8786 23.8439 19.8777C23.7546 19.8782 23.6652 19.8786 23.5732 19.879C23.475 19.8779 23.3769 19.8768 23.2757 19.8756C23.1209 19.8757 23.1209 19.8757 22.9629 19.8757C22.6205 19.8755 22.2782 19.873 21.9358 19.8706C21.6989 19.87 21.462 19.8695 21.2251 19.8692C20.6006 19.868 19.9762 19.8649 19.3517 19.8614C18.7148 19.8581 18.078 19.8567 17.4411 19.8551C16.1908 19.8517 14.9406 19.8462 13.6903 19.8396C13.6749 19.9565 13.6596 20.0734 13.6437 20.1939C13.5898 20.5454 13.5195 20.764 13.3597 21.0754C13.0481 21.7263 12.8182 22.3982 12.5886 23.0811C12.4129 23.5983 12.2159 24.0962 11.9891 24.5932C11.8592 24.8814 11.7456 25.1747 11.6337 25.4704C11.5889 25.5883 11.544 25.7062 11.4977 25.8277C11.4531 25.9453 11.4085 26.0629 11.3626 26.1841C11.279 26.4023 11.1952 26.6204 11.1113 26.8384C11.0679 26.9511 11.0246 27.0639 10.9799 27.18C10.7767 27.7059 10.5721 28.2313 10.3673 28.7565C10.1399 29.3398 9.91599 29.9244 9.6949 30.5101C9.52203 30.9412 9.32939 31.3641 9.14066 31.7885C6.31244 31.7885 3.48423 31.7885 0.570312 31.7885C0.782125 30.9418 1.07985 30.1232 1.41015 29.3159C1.63241 28.7688 1.84036 28.216 2.05161 27.6645C2.14191 27.4288 2.23229 27.1931 2.32274 26.9574C2.36215 26.8545 2.40157 26.7516 2.44218 26.6455C2.55362 26.3593 2.66719 26.0742 2.78192 25.7893C3.04205 25.1409 3.28776 24.4873 3.5329 23.8332C3.70025 23.3906 3.87301 22.9538 4.06855 22.5228C4.26932 22.0791 4.43402 21.6287 4.59097 21.168C4.78997 20.5943 4.99576 20.0265 5.22622 19.4645C5.3538 19.1505 5.47497 18.8343 5.59613 18.5178C5.76221 18.0854 5.92873 17.6533 6.09871 17.2224C6.14863 17.0957 6.14863 17.0957 6.19956 16.9664C6.35895 16.6009 6.52257 16.6548 6.90181 16.6537Z" fill="white"/>
<path d="M152.701 6.79817C153.013 6.84542 153.218 6.95252 153.461 7.15051C153.609 7.44496 153.57 7.67482 153.558 8.00347C153.553 8.13112 153.549 8.25878 153.544 8.3903C153.536 8.59118 153.536 8.59118 153.528 8.79613C153.523 8.93046 153.518 9.06479 153.513 9.2032C153.475 10.2035 153.475 10.2035 153.356 10.3228C153.342 10.4787 153.337 10.6352 153.334 10.7916C153.331 10.8917 153.329 10.9917 153.327 11.0948C153.321 11.5601 153.316 12.0255 153.313 12.4909C153.31 12.7344 153.307 12.9778 153.302 13.2212C153.245 16.0259 154.001 17.9735 155.895 20.0511C156.027 20.1981 156.027 20.1981 156.162 20.3481C157.078 21.318 158.174 22.0629 159.281 22.8004C159.347 23.1152 159.347 23.1152 159.387 23.501C159.496 24.3787 159.687 25.0444 160.233 25.7612C160.626 26.0233 160.941 26.0564 161.397 25.9727C161.63 25.8516 161.836 25.7165 162.047 25.5596C162.243 25.444 162.243 25.444 162.667 25.444C162.706 25.5378 162.745 25.6315 162.786 25.7282C163.064 26.2196 163.388 26.5303 163.936 26.7129C163.889 27.2458 163.649 27.4929 163.301 27.8761C162.916 27.818 162.668 27.7268 162.353 27.4989C161.78 27.1018 161.18 26.7579 160.576 26.4104C158.625 25.2851 156.691 24.1203 154.943 22.6947C154.907 23.023 154.907 23.023 155.145 23.237C156.433 24.3926 157.848 25.3023 159.324 26.1964C160.402 26.8495 161.459 27.5262 162.455 28.299C162.423 28.622 162.362 28.7113 162.107 28.9215C162.006 28.9844 161.904 29.0472 161.8 29.1119C161.701 29.1756 161.601 29.2393 161.498 29.3048C161.159 29.4756 160.93 29.5439 160.55 29.568C160.233 29.4317 160.233 29.4317 159.9 29.2222C159.809 29.1664 159.809 29.1664 159.717 29.1095C159.522 28.9886 159.329 28.8653 159.135 28.7418C159.001 28.6581 158.867 28.5746 158.733 28.4912C158.47 28.3268 158.207 28.1615 157.944 27.9953C157.648 27.8081 157.35 27.6235 157.05 27.4411C156.374 27.0286 155.721 26.6073 155.112 26.0974C154.949 25.9518 154.949 25.9518 154.731 25.9727C155.129 26.8509 155.966 27.356 156.741 27.8761C156.906 27.9884 157.07 28.1009 157.234 28.2135C157.585 28.4542 157.936 28.6948 158.287 28.9347C158.367 28.9892 158.446 29.0436 158.528 29.0997C158.727 29.2338 158.928 29.3624 159.13 29.4907C159.215 29.5511 159.299 29.6115 159.387 29.6737C159.387 29.7435 159.387 29.8133 159.387 29.8852C156.292 30.371 156.292 30.371 155.755 30.0599C155.525 29.8852 155.525 29.8852 155.33 29.7067C155.15 29.5351 155.15 29.5351 154.837 29.568C154.87 29.629 154.902 29.6901 154.936 29.753C155.041 29.975 155.099 30.1761 155.154 30.4139C155.054 30.4841 154.953 30.5543 154.849 30.6266C154.715 30.7209 154.581 30.8152 154.447 30.9096C154.347 30.9786 154.347 30.9786 154.246 31.049C153.931 31.2716 153.641 31.4921 153.373 31.7708C153.26 31.8843 153.26 31.8843 153.144 32C153.074 32 153.004 32 152.932 32C152.842 28.7899 152.812 25.5825 152.819 22.3711C152.82 21.7959 152.821 21.2207 152.821 20.6455C152.823 19.5309 152.824 18.4164 152.827 17.3018C152.652 17.3018 152.477 17.3018 152.298 17.3018C152.298 17.3939 152.298 17.4861 152.298 17.581C152.301 18.7678 152.303 19.9547 152.304 21.1416C152.304 21.2367 152.304 21.3319 152.304 21.4299C152.307 24.9544 152.27 28.4763 152.192 32C151.904 31.8592 151.648 31.7121 151.391 31.5209C151.322 31.47 151.254 31.4192 151.183 31.3668C151.112 31.3141 151.041 31.2613 150.968 31.207C150.827 31.1023 150.686 30.9976 150.545 30.893C150.483 30.8468 150.42 30.8005 150.356 30.7528C150.195 30.6355 150.03 30.5244 149.864 30.4139C150.049 29.8984 150.049 29.8984 150.287 29.7794C150.287 29.7096 150.287 29.6399 150.287 29.568C149.873 29.5931 149.711 29.7127 149.441 30.0041C149.193 30.225 149.065 30.3033 148.731 30.3375C148.363 30.312 148.006 30.2624 147.642 30.2024C147.471 30.1757 147.3 30.149 147.13 30.1223C146.665 30.048 146.201 29.9678 145.738 29.8852C145.887 29.5258 146.043 29.3652 146.366 29.1516C146.459 29.0882 146.553 29.0248 146.65 28.9595C146.769 28.8803 146.888 28.8011 147.007 28.722C148.511 27.7341 148.511 27.7341 149.884 26.5762C150.076 26.3957 150.076 26.3957 150.393 26.1842C150.393 26.1144 150.393 26.0446 150.393 25.9727C149.948 26.0338 149.636 26.298 149.282 26.5543C148.331 27.2269 147.336 27.823 146.338 28.4217C146.244 28.4782 146.244 28.4782 146.148 28.5359C145.976 28.639 145.804 28.7419 145.631 28.8447C145.41 28.9802 145.194 29.1231 144.981 29.2712C144.665 29.4711 144.444 29.5364 144.069 29.5176C143.585 29.4039 143.158 29.1382 142.775 28.8278C142.7 28.6889 142.629 28.5481 142.563 28.4048C143.2 27.8052 143.856 27.3103 144.6 26.8517C144.7 26.7887 144.801 26.7258 144.904 26.661C145.414 26.3418 145.927 26.0272 146.441 25.7145C147.662 24.9703 148.805 24.2055 149.884 23.263C150.181 23.0119 150.181 23.0119 150.393 23.0119C150.358 22.9072 150.323 22.8025 150.287 22.6947C149.896 22.8699 149.566 23.1159 149.223 23.3688C147.802 24.3977 146.289 25.2897 144.782 26.1863C144.422 26.4011 144.064 26.6191 143.707 26.8397C143.619 26.8939 143.531 26.9481 143.441 27.0039C143.274 27.1074 143.107 27.2113 142.94 27.3156C142.375 27.6646 142.375 27.6646 142.14 27.6646C142.14 27.7344 142.14 27.8042 142.14 27.8761C141.769 27.8164 141.612 27.6995 141.373 27.4134C141.318 27.3494 141.263 27.2853 141.206 27.2193C141.082 27.0301 141.082 27.0301 141.082 26.7129C141.252 26.5849 141.252 26.5849 141.479 26.4618C141.928 26.199 142.222 25.9142 142.458 25.444C142.77 25.4921 142.912 25.5733 143.172 25.7678C143.596 26.0205 143.881 26.0633 144.362 25.9727C144.929 25.7284 145.158 25.3555 145.416 24.8199C145.523 24.5024 145.556 24.2155 145.584 23.8834C145.645 23.2626 145.743 22.8472 146.222 22.4196C146.606 22.116 147.01 21.8422 147.42 21.5738C149.311 20.3141 151.207 18.1076 151.706 15.8447C151.851 14.9698 151.807 14.0667 151.798 13.183C151.795 12.8375 151.794 12.4921 151.793 12.1466C151.792 11.9271 151.791 11.7076 151.79 11.488C151.79 11.3847 151.789 11.2814 151.789 11.175C151.788 11.0799 151.787 10.9849 151.786 10.8869C151.785 10.8033 151.784 10.7196 151.783 10.6334C151.781 10.4198 151.781 10.4198 151.663 10.217C151.615 9.72921 151.598 9.23948 151.577 8.74987C151.569 8.61315 151.561 8.47643 151.552 8.33557C151.544 8.13867 151.544 8.13867 151.535 7.9378C151.529 7.81732 151.523 7.69684 151.517 7.5727C151.557 7.25625 151.557 7.25625 151.755 7.00545C152.081 6.75632 152.305 6.78057 152.701 6.79817Z" fill="white"/>
<path d="M40.4597 0.0656738C43.3228 0.0656738 46.1859 0.0656738 49.1358 0.0656738C48.926 0.764687 48.7099 1.44603 48.4547 2.12766C48.422 2.21575 48.3892 2.30385 48.3555 2.39462C48.1652 2.90483 47.9694 3.41216 47.7632 3.91619C47.6149 4.28923 47.4766 4.66581 47.3371 5.04219C47.1688 5.49589 46.9983 5.94435 46.7948 6.3838C46.6329 6.73403 46.5094 7.08707 46.3914 7.45444C46.2214 7.98105 46.0093 8.47038 45.7736 8.97036C45.5928 9.38243 45.4602 9.80617 45.323 10.2343C45.2049 10.5814 45.0573 10.9067 44.9031 11.2389C44.7816 11.5238 44.6872 11.8122 44.5927 12.1071C44.4215 12.6379 44.2067 13.1309 43.9686 13.6346C43.81 13.9995 43.7013 14.3699 43.5996 14.754C43.5281 14.9754 43.5281 14.9754 43.3164 15.2926C43.0379 15.3229 42.7843 15.3326 42.5057 15.3286C42.3802 15.3287 42.3802 15.3287 42.2523 15.3288C41.9752 15.3285 41.6981 15.3261 41.421 15.3236C41.2292 15.323 41.0373 15.3226 40.8455 15.3222C40.34 15.321 39.8345 15.3179 39.329 15.3144C38.8134 15.3112 38.2978 15.3097 37.7823 15.3081C36.7702 15.3047 35.7581 15.2993 34.7461 15.2926C34.8244 14.7782 34.9621 14.3161 35.1495 13.832C35.1782 13.7566 35.2069 13.6811 35.2365 13.6034C35.3801 13.2293 35.5293 12.8605 35.6984 12.497C35.9421 11.9701 36.1248 11.4214 36.3127 10.8727C36.4765 10.3975 36.6619 9.93815 36.8622 9.47677C36.9541 9.23723 37.0444 8.99706 37.1334 8.7564C37.4299 7.95904 37.7338 7.16456 38.0393 6.37058C38.0837 6.25502 38.1281 6.13945 38.1739 6.02038C38.3726 5.50442 38.5728 4.98925 38.7791 4.4763C38.9584 4.03074 39.129 3.58253 39.2958 3.13221C39.4714 2.66077 39.649 2.1908 39.838 1.72451C40.0575 1.17629 40.2578 0.620575 40.4597 0.0656738Z" fill="white"/>
</svg>
