<svg width="124" height="25" viewBox="0 0 124 25" fill="none" xmlns="http://www.w3.org/2000/svg">
<path d="M101.826 0.549316C109.144 0.549316 116.461 0.549316 124 0.549316C123.942 0.897299 123.877 1.19773 123.774 1.53074C123.748 1.61478 123.722 1.69881 123.696 1.78539C123.613 2.03597 123.524 2.2824 123.432 2.52917C121.944 6.48582 121.74 10.4831 121.641 14.666C121.239 14.6679 120.838 14.6694 120.436 14.6703C120.299 14.6707 120.162 14.6713 120.026 14.672C119.83 14.6729 119.633 14.6734 119.437 14.6737C119.376 14.6741 119.314 14.6745 119.251 14.675C119.104 14.675 118.957 14.6709 118.81 14.666C118.678 14.5327 118.722 14.3682 118.722 14.1853C118.721 14.0995 118.721 14.0136 118.721 13.9251C118.721 13.7841 118.721 13.7841 118.721 13.6402C118.721 13.5434 118.721 13.4466 118.721 13.3468C118.721 13.1404 118.721 12.9341 118.721 12.7277C118.722 12.4167 118.721 12.1057 118.721 11.7947C118.72 8.93288 118.72 8.93288 119.002 7.54816C119.038 7.36253 119.074 7.17686 119.11 6.99115C119.127 6.9049 119.144 6.81864 119.161 6.72977C119.211 6.45762 119.246 6.18737 119.277 5.91245C119.376 5.16281 119.615 4.44313 119.833 3.7216C119.867 3.60316 119.902 3.48472 119.937 3.36626C120.107 2.79401 120.301 2.24484 120.554 1.7033C120.63 1.46717 120.619 1.33784 120.54 1.10447C120.299 0.982955 120.099 1.00697 119.833 1.02516C119.419 1.20515 119.28 1.48629 119.102 1.88948C118.263 4.09118 117.733 6.34593 117.503 8.68892C117.474 8.95196 117.434 9.21171 117.394 9.47322C117.261 10.4555 117.258 11.4507 117.228 12.4404C117.221 12.649 117.214 12.8575 117.207 13.066C117.191 13.5729 117.175 14.0798 117.159 14.5867C116.854 14.6029 116.55 14.6127 116.245 14.6214C116.116 14.6283 116.116 14.6283 115.984 14.6355C115.357 14.6489 115.357 14.6489 115.11 14.4679C114.99 14.3278 114.893 14.1912 114.8 14.0315C114.758 13.963 114.715 13.8945 114.671 13.8239C114.625 13.7353 114.625 13.7353 114.579 13.6449C114.474 13.4269 114.474 13.4269 114.328 13.2384C114.133 12.4198 114.149 11.5862 114.155 10.7501C114.156 10.5267 114.157 10.3034 114.157 10.0799C114.157 9.93543 114.157 9.79091 114.158 9.64639C114.158 9.58086 114.158 9.51533 114.158 9.44781C114.168 8.1656 114.168 8.1656 114.328 8.00418C114.35 7.89307 114.367 7.78112 114.382 7.66898C114.392 7.60018 114.402 7.53138 114.411 7.46049C114.431 7.31593 114.451 7.17136 114.47 7.02678C114.527 6.62613 114.607 6.25169 114.722 5.86289C114.756 5.66989 114.789 5.47655 114.82 5.28295C114.925 4.67528 115.107 4.10844 115.307 3.52674C115.43 3.16797 115.543 2.80665 115.65 2.44277C115.675 2.36258 115.675 2.36258 115.7 2.28077C115.807 1.91436 115.862 1.5623 115.901 1.18377C115.587 1.03478 115.337 1.00512 114.992 1.00463C114.889 1.00413 114.786 1.00363 114.68 1.00312C114.569 1.0034 114.457 1.00373 114.345 1.00409C114.23 1.00399 114.115 1.00383 114 1.00363C113.76 1.0034 113.519 1.00374 113.278 1.00448C112.97 1.00538 112.662 1.00486 112.354 1.00391C112.116 1.00334 111.879 1.00352 111.642 1.00393C111.528 1.00404 111.414 1.00391 111.301 1.00354C111.142 1.00314 110.983 1.00386 110.824 1.00463C110.689 1.00482 110.689 1.00482 110.55 1.00502C110.325 1.02457 110.194 1.06534 110.004 1.18377C110.051 1.5668 110.126 1.92412 110.235 2.29407C110.275 2.43147 110.275 2.43147 110.315 2.57165C110.356 2.70904 110.356 2.70904 110.397 2.84922C110.421 2.93745 110.446 3.02567 110.471 3.11657C110.55 3.3906 110.636 3.66131 110.724 3.93253C111.031 4.88737 111.239 5.82964 111.383 6.82418C111.412 7.00934 111.449 7.18424 111.498 7.36476C111.747 8.32413 111.761 9.29223 111.758 10.277C111.758 10.502 111.76 10.7269 111.762 10.9519C111.766 12.0891 111.732 13.166 111.026 14.1108C110.997 14.1586 110.969 14.2063 110.939 14.2555C110.766 14.5104 110.646 14.6469 110.339 14.7104C110.084 14.7206 109.836 14.7144 109.581 14.7007C109.493 14.6982 109.405 14.6957 109.315 14.6931C109.099 14.6866 108.883 14.6774 108.667 14.666C108.665 14.5134 108.665 14.5134 108.662 14.3578C108.602 10.5556 108.444 6.80543 107.252 3.16149C107.22 3.06393 107.188 2.96637 107.156 2.86585C106.859 1.85955 106.859 1.85955 106.226 1.08204C106.044 1.01465 105.898 1.00673 105.704 1.01029C105.642 1.0108 105.58 1.01131 105.516 1.01184C105.364 1.00872 105.364 1.00872 105.286 1.10447C105.32 1.54945 105.451 1.91442 105.62 2.32381C106.227 3.84802 106.555 5.42285 106.829 7.03762C106.853 7.1785 106.853 7.1785 106.878 7.32223C107.146 8.94407 107.197 10.5437 107.188 12.1863C107.188 12.403 107.188 12.6196 107.188 12.8362C107.188 13.0954 107.187 13.3547 107.186 13.6139C107.186 13.7106 107.186 13.8073 107.186 13.907C107.185 13.9953 107.185 14.0836 107.184 14.1746C107.184 14.2525 107.184 14.3304 107.184 14.4107C107.173 14.5867 107.173 14.5867 107.094 14.666C106.885 14.673 106.677 14.6751 106.468 14.6737C106.405 14.6736 106.342 14.6735 106.277 14.6734C106.076 14.6729 105.875 14.6719 105.674 14.6709C105.538 14.6705 105.402 14.6702 105.266 14.6698C104.932 14.669 104.598 14.6676 104.264 14.666C104.22 13.829 104.184 12.9939 104.176 12.1557C104.141 8.87655 103.624 5.80998 102.542 2.70234C102.404 2.30334 102.272 1.90215 102.141 1.501C102.096 1.36716 102.052 1.23333 102.008 1.09951C101.947 0.916111 101.887 0.732714 101.826 0.549316Z" fill="#0F1A2B"/>
<path d="M78.0005 13.0005C80.1022 13.0005 82.204 13.0005 84.3695 13.0005C84.3107 13.3565 84.256 13.5973 84.125 13.9203C84.0918 14.003 84.0586 14.0856 84.0243 14.1708C83.989 14.2573 83.9538 14.3438 83.9174 14.433C83.8454 14.6118 83.7734 14.7907 83.7015 14.9695C83.6499 15.0972 83.6499 15.0972 83.5974 15.2274C83.4894 15.4968 83.3856 15.7673 83.2834 16.0389C83.1635 16.3574 83.0367 16.6719 82.905 16.9857C82.7699 17.3092 82.6508 17.6324 82.5456 17.9669C82.4767 18.1724 82.3987 18.3725 82.3181 18.5737C82.2899 18.6441 82.2617 18.7146 82.2327 18.7872C82.2113 18.8405 82.1899 18.8937 82.1679 18.9485C82.7275 18.9492 83.287 18.9463 83.8466 18.9408C84.0368 18.9393 84.227 18.9387 84.4172 18.939C84.6913 18.9392 84.9653 18.9364 85.2394 18.933C85.3238 18.9337 85.4083 18.9345 85.4953 18.9352C85.9969 18.9255 86.2978 18.849 86.6855 18.5216C86.8846 18.3116 86.9871 18.109 87.1068 17.8432C87.1708 17.7047 87.1708 17.7047 87.2361 17.5634C87.441 17.09 87.6398 16.6158 87.8262 16.1347C87.8702 16.0215 87.9142 15.9084 87.9583 15.7953C88.0262 15.6203 88.0942 15.4453 88.1621 15.2702C88.8854 13.4078 88.8854 13.4078 89.0873 13.0005C91.1891 13.0005 93.2909 13.0005 95.4564 13.0005C95.2216 13.9478 94.8598 14.8659 94.5128 15.7762C94.4835 15.8534 94.4543 15.9306 94.4241 16.0101C94.3103 16.304 94.19 16.5869 94.0466 16.8673C93.884 17.1924 93.7628 17.5233 93.6479 17.868C93.6072 17.9872 93.5663 18.1063 93.5253 18.2255C93.4962 18.3103 93.4962 18.3103 93.4664 18.3969C93.377 18.6518 93.2771 18.9019 93.1746 19.1517C93.1177 19.2943 93.0644 19.4383 93.013 19.583C92.3306 21.4854 91.1088 22.8348 89.3073 23.7199C88.9799 23.8737 88.6461 23.997 88.301 24.1035C88.2465 24.1203 88.192 24.1372 88.1358 24.1546C87.3051 24.3866 86.4379 24.3525 85.5838 24.3504C85.4535 24.3504 85.3233 24.3504 85.193 24.3504C84.8415 24.3505 84.49 24.35 84.1385 24.3494C83.7704 24.3489 83.4022 24.3489 83.0341 24.3488C82.3379 24.3486 81.6418 24.3479 80.9456 24.3471C80.1526 24.3462 79.3597 24.3458 78.5667 24.3454C76.9364 24.3446 75.3061 24.3432 73.6758 24.3414C73.7262 24.0748 73.7882 23.8386 73.892 23.588C74.0214 23.2708 74.145 22.9521 74.2655 22.6313C74.376 22.3397 74.4898 22.0524 74.6193 21.7689C74.7971 21.3763 74.9323 20.9696 75.0736 20.5625C75.1519 20.346 75.2359 20.1388 75.3319 19.9299C75.4904 19.584 75.6043 19.2279 75.7208 18.8658C75.8115 18.5931 75.9162 18.3286 76.0243 18.0625C76.1372 17.778 76.2432 17.491 76.3492 17.2038C76.5017 16.7912 76.6579 16.3808 76.8216 15.9726C77.0188 15.4761 77.2063 14.9756 77.3941 14.4754C77.4272 14.3878 77.4602 14.3002 77.4943 14.2099C77.5236 14.1318 77.5529 14.0537 77.583 13.9732C77.7133 13.6453 77.8582 13.3234 78.0005 13.0005Z" fill="#0F1A2B"/>
<path d="M82.7187 0.549309C84.0619 0.541872 85.405 0.536292 86.7482 0.532873C87.372 0.531243 87.9957 0.529024 88.6195 0.525378C89.1637 0.522199 89.7079 0.520165 90.2521 0.519462C90.5397 0.519051 90.8274 0.518098 91.1151 0.515769C93.8479 0.4945 93.8479 0.494499 94.9949 1.18377C95.0464 1.21398 95.0979 1.2442 95.151 1.27533C96.4375 2.06266 97.2208 3.18773 97.7371 4.59397C98.13 6.27293 97.573 7.80265 96.9452 9.3302C96.7737 9.75488 96.6195 10.1852 96.479 10.6213C96.4271 10.6213 96.3752 10.6213 96.3218 10.6213C96.3153 10.6818 96.3088 10.7423 96.3021 10.8047C96.2215 11.2046 96.0669 11.586 95.9286 11.9695C93.8268 11.9695 91.725 11.9695 89.5595 11.9695C89.6188 11.5513 89.6582 11.3257 89.82 10.9633C89.951 10.6587 90.0697 10.3579 90.1689 10.0414C90.378 9.38781 90.6364 8.75278 90.8867 8.11446C90.9151 8.04165 90.9435 7.96884 90.9728 7.89383C91.024 7.7625 91.0757 7.63132 91.1278 7.50035C91.274 7.12482 91.3287 6.89136 91.2108 6.49734C91.0175 6.27588 91.0175 6.27588 90.8176 6.1008C90.8176 6.04846 90.8176 5.99612 90.8176 5.94219C89.5981 5.94219 88.3785 5.94219 87.122 5.94219C86.9663 6.3871 86.8106 6.83201 86.6502 7.29041C86.4619 7.79529 86.269 8.29566 86.0605 8.79228C85.8767 9.23113 85.719 9.67691 85.566 10.1275C85.4708 10.3834 85.4708 10.3834 85.3516 10.6204C85.2267 10.876 85.1465 11.126 85.0678 11.3995C84.9282 11.8822 84.9282 11.8822 84.8417 11.9695C84.6431 11.9771 84.4467 11.9795 84.2481 11.9785C84.1549 11.9785 84.1549 11.9785 84.0599 11.9786C83.8535 11.9785 83.6472 11.9779 83.4408 11.9773C83.2981 11.9771 83.1554 11.977 83.0128 11.9769C82.6365 11.9766 82.2602 11.9758 81.8839 11.975C81.5002 11.9742 81.1165 11.9738 80.7328 11.9734C79.9794 11.9725 79.226 11.9712 78.4727 11.9695C78.5157 11.6474 78.5552 11.3611 78.684 11.0624C78.8307 10.7102 78.9655 10.3551 79.0968 9.99676C79.238 9.61297 79.3847 9.23336 79.544 8.85672C79.6732 8.54954 79.7861 8.24232 79.888 7.92486C80.0126 7.53789 80.1586 7.16677 80.3165 6.79257C80.7224 5.82034 81.1021 4.83314 81.4397 3.83466C81.526 3.59917 81.6191 3.36948 81.7159 3.13831C81.9378 2.60308 82.145 2.06274 82.3501 1.52082C82.3858 1.42677 82.4216 1.33271 82.4584 1.23581C82.5453 1.00702 82.632 0.77819 82.7187 0.549309Z" fill="#0F1A2B"/>
<path d="M61.332 0.549296C62.6738 0.539996 64.0156 0.533022 65.3574 0.52875C65.9806 0.526714 66.6037 0.523941 67.2268 0.519381C67.7705 0.515405 68.3142 0.512865 68.8579 0.511986C69.1453 0.511473 69.4327 0.510285 69.7201 0.50737C72.0208 0.484951 72.0208 0.484951 73.0479 0.945831C73.1819 1.005 73.1819 1.005 73.3187 1.06536C73.8338 1.30271 74.2752 1.59974 74.6991 1.97682C74.7581 2.02886 74.8171 2.08089 74.8779 2.13451C75.7084 2.91642 76.3603 4.02294 76.4429 5.18659C76.4482 5.41202 76.4514 5.63738 76.4536 5.86287C76.4559 5.93944 76.4581 6.01601 76.4605 6.0949C76.4689 7.07959 76.0843 7.95383 75.7312 8.85671C75.4611 9.55477 75.2013 10.254 74.9627 10.9636C74.8384 11.3053 74.6884 11.637 74.5419 11.9695C72.4401 11.9695 70.3383 11.9695 68.1728 11.9695C68.2336 11.6018 68.3034 11.3174 68.4284 10.9732C68.4635 10.8762 68.4987 10.7792 68.535 10.6792C68.7457 10.1106 68.9608 9.54393 69.1852 8.98062C69.222 8.88739 69.222 8.88739 69.2595 8.79227C69.3123 8.65967 69.3654 8.5272 69.4195 8.39512C69.4962 8.20732 69.5717 8.01902 69.6471 7.83067C69.6722 7.77034 69.6972 7.71 69.723 7.64784C69.8692 7.27903 69.9463 6.98065 69.9027 6.57663C69.7533 6.27219 69.5049 6.06843 69.195 5.94217C69.0238 5.91661 69.0238 5.91661 68.8417 5.91689C68.7725 5.91531 68.7032 5.91374 68.6319 5.91211C68.5578 5.9112 68.4838 5.91028 68.4075 5.90934C68.3311 5.9078 68.2548 5.90626 68.1761 5.90468C67.9326 5.89995 67.689 5.89626 67.4455 5.89261C67.2802 5.88958 67.115 5.88648 66.9497 5.88331C66.5449 5.8757 66.1401 5.86904 65.7353 5.86287C65.7198 5.9362 65.7198 5.9362 65.7041 6.01102C65.6903 6.07522 65.6765 6.13941 65.6623 6.20556C65.6487 6.26917 65.6352 6.33278 65.6212 6.39832C65.5691 6.6135 65.4895 6.8001 65.3913 6.99795C65.2117 7.37814 65.0784 7.76002 64.9511 8.1606C64.8429 8.48235 64.7104 8.79158 64.5782 9.10392C64.4704 9.3692 64.3747 9.63695 64.2806 9.90753C64.1026 10.4184 63.9029 10.917 63.6909 11.4144C63.613 11.5976 63.5352 11.7808 63.455 11.9695C61.3532 11.9695 59.2514 11.9695 57.0859 11.9695C57.2269 11.2587 57.484 10.5989 57.766 9.93417C57.8909 9.62304 57.9999 9.30788 58.1081 8.99054C58.2647 8.5324 58.4402 8.09439 58.6466 7.65626C58.7797 7.35178 58.8758 7.03729 58.9764 6.72068C59.0413 6.5282 59.1138 6.34905 59.1991 6.16522C59.3561 5.82438 59.4761 5.47431 59.5972 5.11936C59.7555 4.65596 59.9321 4.21272 60.1409 3.76959C60.2722 3.46902 60.3658 3.15838 60.4649 2.84579C60.5431 2.61864 60.635 2.40699 60.7373 2.18996C60.9023 1.83895 61.0292 1.48454 61.148 1.11591C61.1748 1.03385 61.1748 1.03385 61.2021 0.950139C61.2456 0.816597 61.2888 0.682956 61.332 0.549296Z" fill="#0F1A2B"/>
<path d="M45.3903 0.533191C45.4587 0.532967 45.527 0.532743 45.5975 0.532512C45.959 0.531329 46.3206 0.530593 46.6821 0.530248C47.0529 0.529813 47.4237 0.527906 47.7945 0.525651C48.0821 0.524165 48.3698 0.52376 48.6575 0.523639C48.7941 0.523401 48.9307 0.522771 49.0673 0.521721C50.8878 0.508717 52.3205 1.03104 53.6741 2.29405C54.6268 3.29066 55.1169 4.53769 55.1534 5.91739C55.1245 6.81329 54.8779 7.58204 54.5378 8.40317C54.4018 8.73482 54.2859 9.07245 54.1705 9.41186C54.0153 9.86537 53.8421 10.3005 53.6379 10.7344C53.506 11.0286 53.4002 11.3307 53.2945 11.6352C53.2318 11.8109 53.2318 11.8109 53.1532 11.9695C51.0514 11.9695 48.9496 11.9695 46.7842 11.9695C46.9143 11.3132 47.1349 10.6994 47.4132 10.0931C47.5376 9.79952 47.63 9.49597 47.7277 9.19253C47.9079 8.65013 48.1318 8.127 48.37 7.60824C48.5119 7.26291 48.5524 6.95056 48.514 6.57663C48.2907 6.23563 48.1125 6.06042 47.7277 5.94218C47.3573 5.91287 46.9867 5.91605 46.6154 5.91714C46.436 5.91739 46.2568 5.91553 46.0776 5.91352C45.9626 5.91334 45.8477 5.91329 45.7328 5.91337C45.5772 5.91301 45.5772 5.91301 45.4184 5.91265C44.8737 5.96898 44.5718 6.2291 44.236 6.63828C44.0375 6.91755 43.9163 7.2082 43.7962 7.52832C43.7518 7.64072 43.7518 7.64072 43.7065 7.7554C43.5146 8.24735 43.3387 8.74389 43.1672 9.24333C43.0369 9.62243 42.9006 9.99068 42.7298 10.3536C42.495 10.8758 42.3247 11.4255 42.145 11.9695C40.0172 11.9695 37.8895 11.9695 35.6973 11.9695C35.7576 11.6044 35.821 11.3436 35.9528 11.0079C35.9882 10.9173 36.0236 10.8268 36.06 10.7334C36.158 10.4901 36.2587 10.2483 36.3607 10.0067C36.5472 9.56062 36.7064 9.10723 36.8639 8.65023C36.9905 8.28389 37.1247 7.92242 37.2705 7.56332C37.3633 7.333 37.4518 7.10119 37.5402 6.86908C37.5733 6.78198 37.6065 6.69488 37.6406 6.60513C37.7073 6.42924 37.7739 6.25328 37.8403 6.07725C37.9374 5.82034 38.0358 5.56393 38.1348 5.30772C38.1654 5.22757 38.196 5.14742 38.2276 5.06484C38.9271 3.29403 40.1651 1.81204 41.9091 1.02514C43.0589 0.561763 44.1675 0.535913 45.3903 0.533191Z" fill="#0F1A2B"/>
<path d="M56.6137 13.0005C62.3742 13.0005 68.1347 13.0005 74.0697 13.0005C73.99 13.4021 73.9166 13.5542 73.6765 13.8729C73.6448 13.9162 73.6131 13.9596 73.5804 14.0042C72.9108 14.7966 71.6804 15.1814 70.6886 15.3004C70.3988 15.3152 70.1133 15.3165 69.8236 15.3004C69.84 15.3653 69.8563 15.4302 69.8731 15.4971C69.9623 15.8543 70.0503 16.2118 70.1382 16.5693C70.1576 16.648 70.177 16.7267 70.1969 16.8078C70.5192 18.1201 70.8158 19.4361 71.0942 20.7584C71.2193 21.3516 71.3477 21.9439 71.485 22.5344C71.4977 22.589 71.5104 22.6437 71.5235 22.7001C71.6142 23.0865 71.716 23.4689 71.8275 23.8498C71.868 24.0242 71.868 24.0242 71.868 24.3414C69.7403 24.3414 67.6126 24.3414 65.4203 24.3414C65.1156 22.7255 65.1156 22.7255 65.0205 22.2204C64.9951 22.0858 64.9697 21.9512 64.9443 21.8166C64.9251 21.7148 64.9251 21.7148 64.9055 21.6109C64.8292 21.2066 64.7506 20.8027 64.6702 20.3992C64.4154 19.118 64.1741 17.8339 63.9362 16.5495C63.9193 16.459 63.9024 16.3684 63.885 16.2752C63.862 16.1503 63.862 16.1503 63.8385 16.0228C63.825 15.95 63.8116 15.8772 63.7977 15.8022C63.7691 15.6176 63.7691 15.6176 63.7691 15.3797C63.2242 15.3797 62.6793 15.3797 62.1179 15.3797C62.0919 15.4844 62.066 15.5891 62.0392 15.6969C61.8862 16.1976 61.7165 16.6819 61.4986 17.1573C61.3605 17.4775 61.2433 17.8055 61.1233 18.1329C60.989 18.4983 60.8481 18.8601 60.7025 19.2211C60.5306 19.6505 60.372 20.0825 60.2209 20.5198C60.0352 21.0572 59.8367 21.5858 59.6185 22.1108C59.3465 22.7655 59.0827 23.4152 58.8725 24.0936C58.8154 24.2621 58.8154 24.2621 58.7368 24.3414C58.5358 24.3489 58.3369 24.3514 58.136 24.3504C58.0416 24.3504 58.0416 24.3504 57.9453 24.3504C57.7364 24.3504 57.5275 24.3498 57.3186 24.3491C57.1742 24.349 57.0298 24.3489 56.8853 24.3488C56.5044 24.3485 56.1234 24.3477 55.7425 24.3468C55.354 24.346 54.9656 24.3457 54.5772 24.3453C53.8145 24.3444 53.0518 24.3431 52.2891 24.3414C52.377 24.0269 52.4649 23.7204 52.5891 23.4185C52.7827 22.9406 52.9659 22.459 53.1491 21.9771C53.2153 21.8031 53.2816 21.6291 53.3478 21.4551C53.3968 21.3262 53.3968 21.3262 53.4468 21.1947C53.5498 20.9243 53.6529 20.6541 53.756 20.3838C53.8557 20.1224 53.9553 19.861 54.0536 19.5991C54.1892 19.239 54.3246 18.8814 54.4858 18.5322C54.6662 18.1336 54.8033 17.7202 54.9457 17.3068C55.0735 16.9367 55.2084 16.5715 55.356 16.209C55.4512 15.9719 55.5409 15.7329 55.6309 15.4937C55.7427 15.1985 55.8582 14.9081 55.9896 14.6213C56.1501 14.2674 56.2671 13.9025 56.3834 13.5318C56.4565 13.3177 56.4565 13.3177 56.6137 13.0005Z" fill="#0F1A2B"/>
<path d="M35.2255 13.0005C37.3273 13.0005 39.429 13.0005 41.5945 13.0005C41.5945 13.3754 41.5732 13.4867 41.4176 13.8035C41.2112 14.2414 41.0452 14.6843 40.8869 15.1418C40.5099 16.2191 40.5099 16.2191 40.3266 16.6784C40.3017 16.7409 40.2767 16.8035 40.2511 16.8679C40.2043 16.9833 40.1564 17.0981 40.1073 17.2124C39.9486 17.5983 39.9025 17.8953 39.9433 18.3141C40.072 18.5984 40.1548 18.6942 40.4151 18.8692C40.6246 18.8867 40.8256 18.8952 41.0352 18.8958C41.1267 18.8966 41.1267 18.8966 41.2201 18.8974C41.3493 18.8983 41.4785 18.8986 41.6077 18.8986C41.8038 18.8989 41.9997 18.9018 42.1958 18.9048C42.3217 18.9053 42.4475 18.9056 42.5734 18.9058C42.6313 18.9069 42.6893 18.908 42.749 18.9092C43.1398 18.9058 43.4061 18.8158 43.7455 18.6201C43.8748 18.552 43.8748 18.552 44.0321 18.552C44.0613 18.4906 44.0613 18.4906 44.091 18.4281C44.1676 18.2775 44.2516 18.1308 44.3383 17.986C44.5134 17.6779 44.6252 17.3617 44.7348 17.0253C44.8922 16.5579 45.0683 16.112 45.2785 15.6656C45.4095 15.3658 45.503 15.0559 45.6019 14.744C45.7075 14.4371 45.8393 14.147 45.9785 13.8543C46.1031 13.5754 46.2058 13.2869 46.3124 13.0005C48.4141 13.0005 50.5159 13.0005 52.6814 13.0005C52.6262 13.3345 52.5892 13.5433 52.4652 13.8382C52.1898 14.5089 51.9338 15.186 51.6936 15.8704C51.56 16.2509 51.4197 16.6268 51.2685 17.0005C51.1727 17.2406 51.0819 17.4823 50.9909 17.7242C50.8803 18.0158 50.7666 18.3032 50.637 18.5867C50.5055 18.875 50.4065 19.1677 50.3078 19.469C49.6878 21.2467 48.4804 22.7759 46.7851 23.5976C45.796 24.0543 44.8267 24.3524 43.7301 24.3542C43.6711 24.3546 43.6121 24.355 43.5512 24.3554C43.3575 24.3565 43.1637 24.3571 42.9699 24.3575C42.9032 24.3577 42.8364 24.3579 42.7677 24.3582C42.4142 24.3594 42.0607 24.3601 41.7073 24.3604C41.3448 24.3609 40.9824 24.3628 40.62 24.365C40.3389 24.3665 40.0579 24.3669 39.7768 24.3671C39.6434 24.3673 39.5099 24.3679 39.3764 24.369C38.3452 24.3765 37.3869 24.3018 36.459 23.8011C36.4058 23.7733 36.3526 23.7455 36.2978 23.7169C35.9104 23.5102 35.5603 23.2791 35.2255 22.9932C35.1111 22.9098 35.1111 22.9098 34.9945 22.8246C34.3223 22.2446 33.8912 21.4326 33.5742 20.614C33.5532 20.5614 33.5321 20.5089 33.5104 20.4547C33.3324 19.9747 33.2958 19.5329 33.299 19.0229C33.2994 18.9429 33.2997 18.863 33.3 18.7806C33.3161 18.0627 33.4696 17.4694 33.7315 16.8072C33.7644 16.7161 33.7974 16.625 33.8313 16.5312C33.9803 16.1243 34.1441 15.7281 34.3261 15.3351C34.4628 15.0387 34.5753 14.744 34.6751 14.433C34.8341 13.9467 35.0302 13.4732 35.2255 13.0005Z" fill="#0F1A2B"/>
<path d="M14.5064 0.54023C14.6266 0.540252 14.7469 0.54024 14.8671 0.540195C15.1908 0.540172 15.5145 0.540636 15.8382 0.541192C16.1775 0.541691 16.5168 0.541735 16.856 0.541829C17.4973 0.542074 18.1386 0.542724 18.7799 0.543522C19.5105 0.544411 20.2411 0.544845 20.9717 0.545242C22.4735 0.54607 23.9754 0.547463 25.4772 0.549233C25.4238 0.830488 25.3548 1.08844 25.256 1.35717C25.2312 1.42536 25.2064 1.49355 25.1808 1.56381C25.1023 1.77001 25.0219 1.97507 24.9403 2.17998C24.749 2.66054 24.5651 3.14385 24.3813 3.62734C24.1825 4.14934 24.1825 4.14934 24.084 4.40821C24.0137 4.59298 23.9436 4.7778 23.8735 4.96266C23.8206 5.102 23.8206 5.102 23.7667 5.24415C23.7347 5.32856 23.7027 5.41297 23.6697 5.49994C23.59 5.70419 23.59 5.70419 23.5114 5.8628C23.4641 5.86299 23.4168 5.86318 23.368 5.86338C22.2156 5.86807 21.0631 5.87407 19.9107 5.8815C19.3534 5.88506 18.796 5.88819 18.2387 5.89028C17.7008 5.8923 17.163 5.89554 16.6251 5.89954C16.4199 5.90086 16.2147 5.90177 16.0095 5.90227C15.7221 5.90303 15.4347 5.90526 15.1472 5.90782C15.0625 5.90771 14.9777 5.90759 14.8903 5.90748C14.4247 5.91335 14.0961 5.96115 13.6826 6.18003C13.6226 6.20457 13.5626 6.2291 13.5008 6.25438C13.1697 6.46462 13.0509 7.04565 12.9111 7.39938C12.8691 7.50503 12.8691 7.50503 12.8264 7.61282C12.6281 8.1161 12.4424 8.62204 12.2679 9.13422C12.1886 9.35231 12.1886 9.35231 12.0314 9.66954C14.5743 9.66954 17.1172 9.66954 19.7372 9.66954C19.6824 9.9455 19.6267 10.1792 19.536 10.4406C19.5121 10.5095 19.4882 10.5783 19.4636 10.6493C19.4388 10.7202 19.4139 10.7911 19.3882 10.8641C19.3514 10.9709 19.3514 10.9709 19.3137 11.0799C19.206 11.3889 19.0966 11.6754 18.9508 11.9694C14.2543 11.9694 9.55766 11.9694 4.71875 11.9694C4.79659 11.7339 4.87444 11.4984 4.95464 11.2557C4.9813 11.1732 5.00796 11.0907 5.03542 11.0057C5.17487 10.5753 5.32488 10.1533 5.49492 9.73429C5.60593 9.45496 5.71042 9.17329 5.81466 8.89134C6.40265 7.30446 6.40265 7.30446 6.60096 6.87397C6.72544 6.59987 6.82511 6.32091 6.92115 6.03547C7.64594 3.88602 8.72836 2.26895 10.7229 1.15984C11.9171 0.573442 13.2058 0.536801 14.5064 0.54023Z" fill="#0F1A2B"/>
<path d="M24.926 13.0005C27.0278 13.0005 29.1295 13.0005 31.295 13.0005C31.2285 13.3358 31.1421 13.6493 31.0346 13.972C31.0081 14.0518 31.0081 14.0518 30.9811 14.1333C30.8695 14.4644 30.7422 14.78 30.5953 15.0962C30.4262 15.4948 30.2926 15.9073 30.1521 16.3168C29.9793 16.8179 29.7936 17.3085 29.5799 17.7936C29.4006 18.2099 29.2468 18.6276 29.1032 19.0576C28.7516 20.092 28.2816 21.0281 27.5994 21.8829C27.5569 21.9387 27.5145 21.9945 27.4707 22.052C26.8096 22.8754 25.7891 23.5953 24.777 23.8941C24.6081 23.9425 24.6081 23.9425 24.4393 24.0194C23.1197 24.5214 21.5857 24.3728 20.1984 24.3655C19.8606 24.364 19.5228 24.3639 19.185 24.3636C18.5476 24.3629 17.9102 24.3609 17.2728 24.3585C16.5462 24.3559 15.8196 24.3546 15.093 24.3534C13.6004 24.3509 12.1078 24.3467 10.6152 24.3414C10.6684 23.995 10.7471 23.696 10.8757 23.3699C10.9113 23.279 10.9469 23.1881 10.9835 23.0945C11.0177 23.0087 11.0518 22.9229 11.087 22.8346C11.1249 22.739 11.1249 22.739 11.1635 22.6416C11.2127 22.5177 11.2619 22.3939 11.3112 22.2701C11.644 21.4277 11.9652 20.5807 12.2849 19.7332C12.3136 19.6573 12.3422 19.5813 12.3718 19.503C12.4415 19.3182 12.5113 19.1334 12.581 18.9485C12.6531 18.9486 12.6531 18.9486 12.7266 18.9486C13.8975 18.9492 15.0683 18.9471 16.2392 18.9421C16.8054 18.9398 17.3716 18.9384 17.9378 18.939C18.4316 18.9395 18.9252 18.9384 19.419 18.9353C19.6802 18.9337 19.9414 18.9332 20.2027 18.9342C20.4949 18.9352 20.7869 18.9332 21.0791 18.9305C21.208 18.932 21.208 18.932 21.3396 18.9334C21.91 18.9241 22.2372 18.7981 22.6457 18.3934C22.8826 18.1354 23.0226 17.8909 23.1519 17.5656C23.185 17.4823 23.2182 17.399 23.2523 17.3131C23.3906 16.9465 23.5197 16.5769 23.6485 16.2068C23.7668 15.8787 23.9003 15.5587 24.0358 15.2375C24.1784 14.8883 24.3081 14.5346 24.436 14.1798C24.5832 13.7761 24.7516 13.3963 24.926 13.0005Z" fill="#0F1A2B"/>
<path d="M4.70526 12.9902C4.78752 12.9906 4.78752 12.9906 4.87145 12.9909C4.92931 12.9908 4.98717 12.9908 5.04679 12.9907C5.24214 12.9906 5.43749 12.991 5.63284 12.9914C5.77229 12.9915 5.91175 12.9915 6.0512 12.9914C6.43101 12.9914 6.81083 12.9919 7.19064 12.9924C7.58711 12.9929 7.98358 12.9929 8.38006 12.993C9.13139 12.9933 9.88271 12.9939 10.634 12.9947C11.4892 12.9956 12.3443 12.9961 13.1994 12.9965C14.959 12.9973 16.7186 12.9987 18.4781 13.0004C18.4414 13.1251 18.4046 13.2497 18.3677 13.3742C18.3472 13.4436 18.3268 13.513 18.3056 13.5845C18.212 13.8933 18.108 14.1979 18.0014 14.5023C17.9813 14.5611 17.9612 14.6198 17.9405 14.6803C17.8508 14.9371 17.7637 15.152 17.6132 15.3797C17.4711 15.4089 17.4711 15.4089 17.2958 15.4083C17.2294 15.4086 17.163 15.4089 17.0946 15.4093C17.0217 15.4084 16.9487 15.4075 16.8736 15.4067C16.7585 15.4067 16.7585 15.4067 16.6411 15.4068C16.3866 15.4066 16.1322 15.4048 15.8778 15.4029C15.7017 15.4024 15.5257 15.4021 15.3496 15.4019C14.8855 15.401 14.4215 15.3986 13.9574 15.396C13.4841 15.3936 13.0108 15.3925 12.5376 15.3913C11.6084 15.3887 10.6793 15.3847 9.75017 15.3797C9.73873 15.4674 9.72729 15.555 9.7155 15.6454C9.67546 15.909 9.6232 16.073 9.50445 16.3066C9.27287 16.7947 9.10205 17.2986 8.93142 17.8108C8.80083 18.1987 8.65442 18.5721 8.48592 18.9449C8.38934 19.1611 8.30495 19.381 8.22179 19.6028C8.18844 19.6912 8.15509 19.7796 8.12074 19.8707C8.08759 19.959 8.05445 20.0472 8.0203 20.1381C7.95816 20.3017 7.89591 20.4653 7.83355 20.6288C7.80132 20.7133 7.76909 20.7979 7.73588 20.885C7.58491 21.2794 7.43288 21.6734 7.28062 22.0674C7.11166 22.5048 6.94525 22.9432 6.78095 23.3825C6.65248 23.7059 6.50932 24.0231 6.36906 24.3413C4.26727 24.3413 2.16548 24.3413 0 24.3413C0.157408 23.7063 0.37866 23.0923 0.624129 22.4869C0.789299 22.0766 0.94384 21.662 1.10083 21.2484C1.16794 21.0716 1.2351 20.8948 1.30232 20.718C1.33161 20.6408 1.3609 20.5636 1.39108 20.4841C1.4739 20.2694 1.5583 20.0556 1.64356 19.8419C1.83688 19.3557 2.01948 18.8655 2.20165 18.3749C2.32602 18.0429 2.4544 17.7153 2.59972 17.3921C2.74892 17.0593 2.87132 16.7215 2.98795 16.3759C3.13584 15.9457 3.28878 15.5198 3.46004 15.0984C3.55485 14.8629 3.6449 14.6257 3.73494 14.3883C3.85836 14.064 3.98212 13.7399 4.10844 13.4168C4.14553 13.3217 4.14553 13.3217 4.18338 13.2247C4.30183 12.9507 4.42343 12.9911 4.70526 12.9902Z" fill="#0F1A2B"/>
<path d="M113.056 5.5986C113.288 5.63403 113.44 5.71436 113.622 5.86285C113.731 6.08369 113.702 6.25608 113.694 6.50257C113.69 6.59831 113.687 6.69405 113.683 6.79269C113.677 6.94336 113.677 6.94336 113.671 7.09707C113.667 7.19782 113.664 7.29857 113.66 7.40237C113.632 8.15259 113.632 8.15259 113.543 8.24206C113.533 8.35898 113.529 8.47636 113.527 8.59368C113.525 8.66871 113.524 8.74374 113.522 8.82105C113.517 9.17008 113.514 9.51911 113.511 9.86817C113.509 10.0507 113.507 10.2333 113.503 10.4159C113.461 12.5194 114.023 13.9801 115.43 15.5383C115.528 15.6486 115.528 15.6486 115.628 15.761C116.31 16.4885 117.124 17.0472 117.946 17.6003C117.995 17.8364 117.995 17.8364 118.025 18.1257C118.106 18.784 118.248 19.2833 118.654 19.8209C118.946 20.0174 119.18 20.0422 119.519 19.9795C119.692 19.8887 119.845 19.7873 120.002 19.6697C120.148 19.583 120.148 19.583 120.462 19.583C120.492 19.6533 120.521 19.7236 120.551 19.7961C120.758 20.1647 120.999 20.3977 121.406 20.5347C121.371 20.9343 121.193 21.1196 120.934 21.407C120.648 21.3635 120.464 21.2951 120.23 21.1242C119.804 20.8264 119.357 20.5684 118.909 20.3078C117.459 19.4638 116.022 18.5902 114.722 17.521C114.696 17.7673 114.696 17.7673 114.873 17.9277C115.83 18.7944 116.881 19.4767 117.979 20.1473C118.779 20.6371 119.565 21.1446 120.305 21.7243C120.281 21.9665 120.236 22.0334 120.046 22.1911C119.971 22.2382 119.896 22.2854 119.819 22.3339C119.745 22.3817 119.67 22.4294 119.594 22.4786C119.342 22.6067 119.172 22.6579 118.89 22.6759C118.654 22.5738 118.654 22.5738 118.406 22.4166C118.339 22.3748 118.339 22.3748 118.271 22.3321C118.126 22.2414 117.982 22.149 117.838 22.0564C117.739 21.9936 117.639 21.9309 117.54 21.8683C117.344 21.7451 117.148 21.6211 116.953 21.4964C116.733 21.356 116.511 21.2176 116.289 21.0808C115.786 20.7714 115.301 20.4555 114.848 20.0731C114.727 19.9638 114.727 19.9638 114.565 19.9795C114.861 20.6382 115.483 21.017 116.059 21.407C116.181 21.4913 116.303 21.5757 116.425 21.6601C116.686 21.8407 116.947 22.0211 117.208 22.201C117.267 22.2419 117.326 22.2827 117.387 22.3248C117.534 22.4253 117.684 22.5218 117.834 22.618C117.897 22.6633 117.96 22.7086 118.025 22.7552C118.025 22.8076 118.025 22.8599 118.025 22.9139C115.725 23.2782 115.725 23.2782 115.326 23.0449C115.155 22.9139 115.155 22.9139 115.01 22.78C114.877 22.6513 114.877 22.6513 114.644 22.6759C114.668 22.7217 114.692 22.7675 114.718 22.8147C114.795 22.9812 114.838 23.132 114.88 23.3104C114.805 23.363 114.73 23.4157 114.653 23.4699C114.553 23.5407 114.453 23.6114 114.354 23.6821C114.28 23.7339 114.28 23.7339 114.205 23.7867C113.97 23.9537 113.755 24.1191 113.556 24.3281C113.472 24.4132 113.472 24.4132 113.386 24.5C113.334 24.5 113.282 24.5 113.228 24.5C113.162 22.0924 113.139 19.6868 113.144 17.2783C113.145 16.8469 113.146 16.4155 113.146 15.9841C113.147 15.1482 113.148 14.3123 113.15 13.4763C113.02 13.4763 112.89 13.4763 112.757 13.4763C112.757 13.5454 112.757 13.6145 112.757 13.6857C112.759 14.5759 112.761 15.466 112.762 16.3562C112.762 16.4275 112.762 16.4989 112.762 16.5724C112.764 19.2158 112.737 21.8572 112.678 24.5C112.464 24.3944 112.274 24.2841 112.083 24.1406C112.032 24.1025 111.981 24.0644 111.928 24.0251C111.876 23.9855 111.823 23.946 111.769 23.9052C111.664 23.8267 111.559 23.7482 111.454 23.6698C111.408 23.635 111.362 23.6003 111.314 23.5646C111.194 23.4766 111.071 23.3933 110.948 23.3104C111.086 22.9238 111.086 22.9238 111.263 22.8346C111.263 22.7822 111.263 22.7299 111.263 22.6759C110.955 22.6948 110.835 22.7845 110.634 23.0031C110.45 23.1688 110.354 23.2275 110.106 23.2531C109.833 23.234 109.568 23.1968 109.297 23.1518C109.17 23.1317 109.043 23.1117 108.916 23.0917C108.571 23.036 108.226 22.9759 107.882 22.9139C107.993 22.6444 108.109 22.5239 108.348 22.3637C108.418 22.3161 108.488 22.2686 108.559 22.2196C108.648 22.1602 108.737 22.1008 108.825 22.0415C109.943 21.3005 109.943 21.3005 110.963 20.4321C111.105 20.2967 111.105 20.2967 111.341 20.1381C111.341 20.0858 111.341 20.0334 111.341 19.9795C111.01 20.0253 110.779 20.2235 110.516 20.4157C109.809 20.9201 109.069 21.3672 108.328 21.8163C108.258 21.8587 108.258 21.8587 108.186 21.9019C108.059 21.9793 107.931 22.0564 107.803 22.1335C107.639 22.2352 107.478 22.3423 107.319 22.4534C107.085 22.6033 106.92 22.6523 106.641 22.6381C106.282 22.5529 105.965 22.3536 105.68 22.1208C105.624 22.0166 105.572 21.911 105.523 21.8036C105.996 21.3539 106.483 20.9827 107.036 20.6387C107.111 20.5915 107.185 20.5443 107.262 20.4957C107.641 20.2563 108.022 20.0204 108.404 19.7859C109.312 19.2277 110.161 18.6541 110.963 17.9473C111.184 17.7589 111.184 17.7589 111.341 17.7589C111.315 17.6804 111.289 17.6019 111.263 17.521C110.972 17.6524 110.727 17.8369 110.472 18.0266C109.416 18.7983 108.291 19.4672 107.172 20.1397C106.904 20.3008 106.638 20.4643 106.373 20.6298C106.307 20.6704 106.242 20.711 106.175 20.7529C106.051 20.8305 105.926 20.9084 105.802 20.9867C105.383 21.2484 105.383 21.2484 105.208 21.2484C105.208 21.3008 105.208 21.3531 105.208 21.407C104.933 21.3623 104.816 21.2746 104.638 21.0601C104.597 21.012 104.556 20.964 104.514 20.9145C104.422 20.7726 104.422 20.7726 104.422 20.5347C104.548 20.4386 104.548 20.4386 104.717 20.3463C105.05 20.1493 105.269 19.9357 105.444 19.583C105.676 19.619 105.782 19.6799 105.975 19.8258C106.29 20.0154 106.502 20.0475 106.859 19.9795C107.28 19.7963 107.451 19.5166 107.643 19.1149C107.722 18.8767 107.747 18.6616 107.767 18.4125C107.813 17.9469 107.886 17.6353 108.242 17.3147C108.527 17.087 108.827 16.8816 109.132 16.6804C110.537 15.7356 111.946 14.0807 112.317 12.3835C112.425 11.7273 112.392 11.05 112.386 10.3872C112.383 10.1281 112.382 9.86906 112.382 9.60995C112.381 9.4453 112.38 9.28064 112.38 9.11599C112.379 9.03851 112.379 8.96103 112.379 8.8812C112.378 8.80991 112.377 8.73863 112.376 8.66518C112.376 8.60243 112.375 8.53967 112.375 8.47501C112.373 8.31485 112.373 8.31485 112.285 8.16275C112.249 7.79688 112.237 7.42958 112.221 7.06237C112.215 6.95983 112.209 6.85729 112.203 6.75165C112.196 6.60397 112.196 6.60397 112.19 6.45332C112.186 6.36296 112.181 6.2726 112.177 6.1795C112.206 5.94216 112.206 5.94216 112.354 5.75406C112.595 5.56721 112.762 5.5854 113.056 5.5986Z" fill="#0F1A2B"/>
<path d="M29.6445 0.549316C31.7722 0.549316 33.9 0.549316 36.0922 0.549316C35.9362 1.07358 35.7756 1.58459 35.586 2.0958C35.5617 2.16188 35.5373 2.22795 35.5123 2.29603C35.3709 2.67868 35.2253 3.05918 35.0721 3.43721C34.9619 3.71698 34.8591 3.99942 34.7555 4.2817C34.6304 4.62198 34.5037 4.95833 34.3525 5.28791C34.2322 5.55059 34.1404 5.81537 34.0527 6.09089C33.9263 6.48585 33.7687 6.85285 33.5935 7.22783C33.4592 7.53688 33.3606 7.85469 33.2587 8.1758C33.1709 8.43608 33.0612 8.68012 32.9466 8.92922C32.8563 9.14288 32.7862 9.3592 32.716 9.5804C32.5887 9.97852 32.4291 10.3483 32.2522 10.726C32.1343 10.9997 32.0535 11.2775 31.9779 11.5656C31.9248 11.7316 31.9248 11.7316 31.7675 11.9695C31.5605 11.9922 31.3721 11.9995 31.165 11.9965C31.0718 11.9966 31.0718 11.9966 30.9767 11.9966C30.7707 11.9965 30.5648 11.9946 30.3589 11.9928C30.2163 11.9923 30.0738 11.992 29.9312 11.9917C29.5555 11.9908 29.1799 11.9885 28.8042 11.9859C28.4211 11.9834 28.0379 11.9823 27.6548 11.9811C26.9026 11.9786 26.1505 11.9745 25.3984 11.9695C25.4566 11.5837 25.559 11.2372 25.6982 10.8741C25.7196 10.8175 25.7409 10.7609 25.7629 10.7026C25.8696 10.4221 25.9805 10.1455 26.1061 9.87285C26.2872 9.47767 26.423 9.06608 26.5627 8.65461C26.6844 8.2982 26.8222 7.95367 26.971 7.60764C27.0394 7.42799 27.1064 7.24786 27.1725 7.06736C27.3929 6.46934 27.6188 5.87348 27.8458 5.278C27.8788 5.19132 27.9118 5.10465 27.9458 5.01535C28.0935 4.62838 28.2422 4.242 28.3956 3.85729C28.5288 3.52311 28.6556 3.18696 28.7795 2.84922C28.9101 2.49564 29.0421 2.14316 29.1825 1.79345C29.3456 1.38228 29.4944 0.965492 29.6445 0.549316Z" fill="#0F1A2B"/>
</svg>
