<svg width="49" height="48" viewBox="0 0 49 48" fill="none" xmlns="http://www.w3.org/2000/svg">
<path d="M24.6668 4.49585C20.81 4.49585 17.0399 5.6395 13.8331 7.78219C10.6264 9.92488 8.12701 12.9704 6.65111 16.5335C5.1752 20.0967 4.78903 24.0175 5.54144 27.8001C6.29386 31.5827 8.15105 35.0573 10.8782 37.7844C13.6053 40.5116 17.0799 42.3688 20.8625 43.1212C24.6451 43.8736 28.5659 43.4874 32.1291 42.0115C35.6922 40.5356 38.7377 38.0362 40.8804 34.8295C43.0231 31.6227 44.1668 27.8526 44.1668 23.9958C44.1613 18.8258 42.1051 13.8691 38.4493 10.2133C34.7935 6.55752 29.8368 4.50131 24.6668 4.49585ZM31.998 29.2065C33.0833 27.6857 33.6666 25.8641 33.6666 23.9958C33.6666 22.1276 33.0833 20.3059 31.998 18.7852L37.3418 13.4433C39.8132 16.4044 41.1669 20.1389 41.1669 23.9958C41.1669 27.8528 39.8132 31.5873 37.3418 34.5483L31.998 29.2065ZM18.6668 23.9958C18.6668 22.8092 19.0187 21.6491 19.6779 20.6624C20.3372 19.6757 21.2743 18.9067 22.3707 18.4526C23.467 17.9984 24.6734 17.8796 25.8373 18.1111C27.0012 18.3426 28.0703 18.9141 28.9094 19.7532C29.7485 20.5923 30.32 21.6614 30.5515 22.8253C30.783 23.9892 30.6642 25.1956 30.21 26.292C29.7559 27.3883 28.9869 28.3254 28.0002 28.9847C27.0135 29.644 25.8534 29.9958 24.6668 29.9958C23.0755 29.9958 21.5493 29.3637 20.4241 28.2385C19.2989 27.1133 18.6668 25.5871 18.6668 23.9958ZM35.2193 11.3208L29.8774 16.6646C28.3567 15.5793 26.535 14.996 24.6668 14.996C22.7985 14.996 20.9769 15.5793 19.4561 16.6646L14.1143 11.3208C17.0753 8.84941 20.8098 7.49566 24.6668 7.49566C28.5237 7.49566 32.2582 8.84941 35.2193 11.3208ZM11.9918 13.4433L17.3355 18.7852C16.2502 20.3059 15.6669 22.1276 15.6669 23.9958C15.6669 25.8641 16.2502 27.6857 17.3355 29.2065L11.9918 34.5483C9.52031 31.5873 8.16657 27.8528 8.16657 23.9958C8.16657 20.1389 9.52031 16.4044 11.9918 13.4433ZM14.1143 36.6709L19.4561 31.3271C20.9769 32.4124 22.7985 32.9957 24.6668 32.9957C26.535 32.9957 28.3567 32.4124 29.8774 31.3271L35.2193 36.6709C32.2582 39.1423 28.5237 40.496 24.6668 40.496C20.8098 40.496 17.0753 39.1423 14.1143 36.6709Z" fill="#C7AB17"/>
</svg>
