<svg width="49" height="52" viewBox="0 0 49 52" fill="none" xmlns="http://www.w3.org/2000/svg">
<g filter="url(#filter0_d_150_5901)">
<path d="M24.668 4.49597C20.8112 4.49597 17.0411 5.63963 13.8344 7.78231C10.6276 9.925 8.12824 12.9705 6.65233 16.5336C5.17642 20.0968 4.79025 24.0176 5.54266 27.8002C6.29508 31.5829 8.15227 35.0574 10.8794 37.7846C13.6065 40.5117 17.0811 42.3689 20.8637 43.1213C24.6463 43.8737 28.5671 43.4875 32.1303 42.0116C35.6935 40.5357 38.7389 38.0364 40.8816 34.8296C43.0243 31.6228 44.168 27.8527 44.168 23.996C44.1625 18.8259 42.1063 13.8692 38.4505 10.2134C34.7948 6.55764 29.838 4.50143 24.668 4.49597ZM31.9992 29.2066C33.0845 27.6859 33.6678 25.8642 33.6678 23.996C33.6678 22.1277 33.0845 20.3061 31.9992 18.7853L37.343 13.4435C39.8144 16.4045 41.1682 20.1391 41.1682 23.996C41.1682 27.8529 39.8144 31.5874 37.343 34.5485L31.9992 29.2066ZM18.668 23.996C18.668 22.8093 19.0199 21.6492 19.6792 20.6626C20.3384 19.6759 21.2755 18.9068 22.3719 18.4527C23.4682 17.9986 24.6746 17.8797 25.8385 18.1113C27.0024 18.3428 28.0715 18.9142 28.9106 19.7533C29.7497 20.5924 30.3212 21.6615 30.5527 22.8254C30.7842 23.9893 30.6654 25.1957 30.2113 26.2921C29.7571 27.3884 28.9881 28.3255 28.0014 28.9848C27.0147 29.6441 25.8547 29.996 24.668 29.996C23.0767 29.996 21.5506 29.3638 20.4253 28.2386C19.3001 27.1134 18.668 25.5873 18.668 23.996ZM35.2205 11.321L29.8786 16.6647C28.3579 15.5795 26.5362 14.9961 24.668 14.9961C22.7997 14.9961 20.9781 15.5795 19.4574 16.6647L14.1155 11.321C17.0765 8.84953 20.8111 7.49578 24.668 7.49578C28.5249 7.49578 32.2594 8.84953 35.2205 11.321ZM11.993 13.4435L17.3367 18.7853C16.2515 20.3061 15.6681 22.1277 15.6681 23.996C15.6681 25.8642 16.2515 27.6859 17.3367 29.2066L11.993 34.5485C9.52153 31.5874 8.16779 27.8529 8.16779 23.996C8.16779 20.1391 9.52153 16.4045 11.993 13.4435ZM14.1155 36.671L19.4574 31.3272C20.9781 32.4125 22.7997 32.9958 24.668 32.9958C26.5362 32.9958 28.3579 32.4125 29.8786 31.3272L35.2205 36.671C32.2594 39.1424 28.5249 40.4962 24.668 40.4962C20.8111 40.4962 17.0765 39.1424 14.1155 36.671Z" fill="#C7AB17"/>
</g>
<defs>
<filter id="filter0_d_150_5901" x="-3.33203" y="-0.00402832" width="56" height="56" filterUnits="userSpaceOnUse" color-interpolation-filters="sRGB">
<feFlood flood-opacity="0" result="BackgroundImageFix"/>
<feColorMatrix in="SourceAlpha" type="matrix" values="0 0 0 0 0 0 0 0 0 0 0 0 0 0 0 0 0 0 127 0" result="hardAlpha"/>
<feOffset dy="4"/>
<feGaussianBlur stdDeviation="2"/>
<feComposite in2="hardAlpha" operator="out"/>
<feColorMatrix type="matrix" values="0 0 0 0 0 0 0 0 0 0 0 0 0 0 0 0 0 0 0.25 0"/>
<feBlend mode="normal" in2="BackgroundImageFix" result="effect1_dropShadow_150_5901"/>
<feBlend mode="normal" in="SourceGraphic" in2="effect1_dropShadow_150_5901" result="shape"/>
</filter>
</defs>
</svg>
