<svg width="24" height="24" viewBox="0 0 24 24" fill="none" xmlns="http://www.w3.org/2000/svg">
<path d="M20.5979 11.0044C20.558 10.8261 20.4752 10.6601 20.3568 10.521C20.2384 10.3818 20.0878 10.2736 19.9182 10.2056L15.1201 8.28658L16.1129 1.66689C16.1493 1.42918 16.1086 1.18605 15.9968 0.973161C15.8849 0.760271 15.7078 0.588824 15.4914 0.483969C15.275 0.379114 15.0306 0.346369 14.7942 0.390537C14.5578 0.434705 14.3418 0.553462 14.1779 0.729388L3.67787 11.9794C3.55306 12.1131 3.46271 12.2751 3.41466 12.4516C3.3666 12.628 3.36229 12.8135 3.40209 12.992C3.44188 13.1705 3.5246 13.3366 3.64306 13.4759C3.76152 13.6153 3.91216 13.7236 4.08193 13.7916L8.88005 15.7106L7.88724 22.3331C7.8508 22.5708 7.89148 22.814 8.00333 23.0269C8.11518 23.2398 8.29231 23.4112 8.50873 23.5161C8.72515 23.6209 8.96948 23.6537 9.20587 23.6095C9.44226 23.5653 9.65828 23.4466 9.82224 23.2706L20.3222 12.0206C20.4476 11.8866 20.5382 11.7239 20.5863 11.5468C20.6343 11.3696 20.6383 11.1834 20.5979 11.0044ZM10.6501 19.0828L11.2379 15.1669C11.2754 14.9163 11.2273 14.6603 11.1012 14.4404C10.9751 14.2206 10.7785 14.0498 10.5432 13.9556L6.44443 12.316L13.3501 4.9172L12.7622 8.83314C12.7247 9.08377 12.7728 9.33974 12.8989 9.55958C13.025 9.77942 13.2216 9.95025 13.4569 10.0444L17.5557 11.6841L10.6501 19.0828Z" fill="#6C757D"/>
</svg>
