<svg width="65" height="32" viewBox="0 0 65 32" fill="none" xmlns="http://www.w3.org/2000/svg">
<g clip-path="url(#clip0_150_5716)">
<path d="M56.0798 10.4679C56.0798 10.4679 53.7165 9.32644 52.6492 8.26107C51.8868 7.50012 51.7344 6.89136 51.3532 6.2065C50.7433 5.06508 50.2859 4.53241 50.2859 4.53241C50.2859 4.53241 52.8017 6.13041 53.9452 7.11965C55.0887 8.18496 56.0798 10.4679 56.0798 10.4679Z" fill="#0F1A2B"/>
<path d="M54.4016 10.3157C54.4016 10.3157 51.6571 10.2395 49.2938 9.78301C46.9305 9.3264 45.3296 8.03284 45.3296 8.03284C45.3296 8.03284 46.1682 8.10888 47.2355 8.10888C48.3028 8.10888 49.5225 8.03284 50.2849 8.18499C51.9621 8.56548 54.4016 10.3157 54.4016 10.3157Z" fill="#0F1A2B"/>
<path d="M45.3296 2.40155C45.3296 2.40155 48.0741 3.08641 49.2176 4.22784C50.3611 5.44536 51.3522 7.65213 51.3522 7.65213C51.3522 7.65213 48.6839 6.58679 47.6929 5.44536C47.2355 4.9127 46.8543 4.15174 46.3969 3.54298C45.8632 2.85812 45.3296 2.40155 45.3296 2.40155Z" fill="#0F1A2B"/>
<path d="M40.2983 6.43507C40.2983 6.43507 41.0607 6.35897 42.0518 6.13069C43.1953 5.82631 44.1863 5.44583 45.6348 5.75021C47.3882 6.13069 49.6753 7.4243 49.6753 7.4243C49.6753 7.4243 46.6259 7.57649 44.9487 7.4243C43.3478 7.34821 40.2983 6.43507 40.2983 6.43507Z" fill="#0F1A2B"/>
<path d="M39.1547 1.03241C39.1547 1.03241 42.5853 1.56508 44.2624 2.40212C45.3297 2.93479 46.9307 5.52203 46.9307 5.52203C46.9307 5.52203 44.4149 4.76108 42.9664 4.07622C41.7467 3.54356 41.2893 2.8587 40.4507 2.02165C39.8408 1.48898 39.1547 1.03241 39.1547 1.03241Z" fill="#0F1A2B"/>
<path d="M35.114 3.92392C35.114 3.92392 36.7912 3.84782 39.6881 4.07611C42.5088 4.30439 43.9573 5.06534 43.9573 5.06534C43.9573 5.06534 40.4505 6.05459 39.002 5.97849C37.7823 5.97849 35.114 3.92392 35.114 3.92392Z" fill="#0F1A2B"/>
<path d="M32.5984 0.80396C32.5984 0.80396 35.8765 0.575672 37.6299 1.03224C39.3833 1.48881 41.213 3.69558 41.213 3.69558C41.213 3.69558 40.2219 3.54339 39.0784 3.46729C37.7824 3.3912 36.7913 3.3151 36.1052 3.08682C34.8092 2.63025 32.5984 0.80396 32.5984 0.80396Z" fill="#0F1A2B"/>
<path d="M43.0424 22.5672C43.0424 22.5672 39.7643 23.0238 38.1634 23.8608C37.2486 24.3935 36.3337 25.2306 35.6476 25.8394C35.1902 26.2198 34.7328 26.5242 34.7328 26.5242C34.7328 26.5242 38.0871 26.2959 39.3069 25.611C40.5267 25.0022 43.0424 22.5672 43.0424 22.5672Z" fill="#0F1A2B"/>
<path d="M48.3025 20.5125C48.3025 20.5125 45.6343 21.5018 44.4145 22.3388C43.7284 22.7953 42.8135 23.7085 41.975 24.4695C41.2126 25.1543 40.5265 25.687 40.5265 25.687C40.5265 25.687 43.8808 25.1543 45.2531 24.2412C45.9392 23.7846 46.7015 22.6432 47.3114 21.8061C47.7688 21.0452 48.3025 20.5125 48.3025 20.5125Z" fill="#0F1A2B"/>
<path d="M53.5608 19.7517C53.5608 19.7517 50.4352 19.4473 49.0629 20.5887C47.6907 21.7302 46.6234 23.7847 46.6234 23.7847C46.6234 23.7847 48.6818 23.0237 50.2827 21.8823C50.8926 21.5018 51.5787 20.8931 52.1124 20.5887C52.9509 20.0561 53.5608 19.7517 53.5608 19.7517Z" fill="#0F1A2B"/>
<path d="M57.0719 19.5992C57.0719 19.5992 54.5561 19.9797 53.2601 20.5885C52.574 20.8929 51.7354 21.6538 50.8968 22.1865C50.1345 22.7192 49.4484 23.1757 49.4484 23.1757C49.4484 23.1757 52.4978 23.8606 54.0987 22.7953C55.9284 21.6538 57.0719 19.5992 57.0719 19.5992Z" fill="#0F1A2B"/>
<path d="M52.8016 23.9369C52.8016 23.9369 51.963 24.013 50.972 23.9369C49.9047 23.8608 49.0661 23.5564 47.9988 23.8608C46.779 24.1652 43.7296 25.4588 43.7296 25.4588C43.7296 25.4588 45.9404 26.3719 47.5414 26.2197C49.2186 26.1437 52.8016 23.9369 52.8016 23.9369Z" fill="#0F1A2B"/>
<path d="M47.0818 26.9045C47.0818 26.9045 44.3373 28.1982 42.8126 27.9699C41.2879 27.7416 38.8484 26.6763 38.8484 26.6763C38.8484 26.6763 40.5256 25.9914 42.1265 25.9914C42.9651 25.9914 44.1849 26.3719 45.1759 26.6002C46.2432 26.8284 47.0818 26.9045 47.0818 26.9045Z" fill="#0F1A2B"/>
<path d="M8.27966 10.4679C8.27966 10.4679 10.643 9.32644 11.7103 8.26107C12.4726 7.50012 12.6251 6.89136 13.0062 6.2065C13.5399 5.06508 14.0735 4.53241 14.0735 4.53241C14.0735 4.53241 11.5578 6.13041 10.4143 7.11965C9.27072 8.18496 8.27966 10.4679 8.27966 10.4679Z" fill="#0F1A2B"/>
<path d="M9.95776 10.3157C9.95776 10.3157 12.7022 10.2395 15.0655 9.78301C17.4288 9.3264 19.0298 8.03284 19.0298 8.03284C19.0298 8.03284 18.1912 8.10888 17.1239 8.10888C16.0566 8.10888 14.8368 8.03284 14.0745 8.18499C12.3211 8.56548 9.95776 10.3157 9.95776 10.3157Z" fill="#0F1A2B"/>
<path d="M19.0272 2.40155C19.0272 2.40155 16.2828 3.08641 15.1392 4.22784C13.9957 5.44536 13.0046 7.65213 13.0046 7.65213C13.0046 7.65213 15.6729 6.58679 16.6639 5.44536C17.1213 4.9127 17.5025 4.15174 17.9599 3.54298C18.4173 2.85812 19.0272 2.40155 19.0272 2.40155Z" fill="#0F1A2B"/>
<path d="M24.0629 6.43507C24.0629 6.43507 23.3005 6.35897 22.3094 6.13069C21.1659 5.82631 20.1749 5.44583 18.7264 5.75021C16.973 6.13069 14.6859 7.4243 14.6859 7.4243C14.6859 7.4243 17.7353 7.57649 19.4125 7.4243C21.0134 7.34821 24.0629 6.43507 24.0629 6.43507Z" fill="#0F1A2B"/>
<path d="M25.2057 1.03241C25.2057 1.03241 21.7751 1.56508 20.0979 2.40212C19.0306 2.93479 17.4297 5.52203 17.4297 5.52203C17.4297 5.52203 19.9455 4.76108 21.3939 4.07622C22.6137 3.54356 23.0711 2.8587 23.9097 2.02165C24.5196 1.48898 25.2057 1.03241 25.2057 1.03241Z" fill="#0F1A2B"/>
<path d="M29.2448 3.92392C29.2448 3.92392 27.5676 3.84782 24.6707 4.07611C21.85 4.30439 20.4015 5.06534 20.4015 5.06534C20.4015 5.06534 23.9083 6.05459 25.3568 5.97849C26.5765 5.97849 29.2448 3.92392 29.2448 3.92392Z" fill="#0F1A2B"/>
<path d="M31.7599 0.80396C31.7599 0.80396 28.4817 0.575672 26.7283 1.03224C24.9749 1.48881 23.1453 3.69558 23.1453 3.69558C23.1453 3.69558 24.0601 3.54339 25.2036 3.46729C26.4996 3.3912 27.4907 3.3151 28.1768 3.08682C29.549 2.63025 31.7599 0.80396 31.7599 0.80396Z" fill="#0F1A2B"/>
<path d="M21.3171 22.5672C21.3171 22.5672 24.5953 23.0238 26.1962 23.8608C27.111 24.3935 28.0258 25.2306 28.712 25.8394C29.1694 26.2198 29.6268 26.5242 29.6268 26.5242C29.6268 26.5242 26.2724 26.2959 25.0527 25.611C23.8329 25.0022 21.3171 22.5672 21.3171 22.5672Z" fill="#0F1A2B"/>
<path d="M16.0547 20.5125C16.0547 20.5125 18.7229 21.5018 19.9427 22.3388C20.6288 22.7953 21.5436 23.7085 22.3822 24.4695C23.1446 25.1543 23.8307 25.687 23.8307 25.687C23.8307 25.687 20.4763 25.1543 19.1041 24.2412C18.418 23.7846 17.6556 22.6432 17.0457 21.8061C16.5883 21.0452 16.0547 20.5125 16.0547 20.5125Z" fill="#0F1A2B"/>
<path d="M10.7983 19.7517C10.7983 19.7517 13.924 19.4473 15.2962 20.5887C16.6685 21.7302 17.7358 23.7847 17.7358 23.7847C17.7358 23.7847 15.6774 23.0237 14.0765 21.8823C13.4666 21.5018 12.7805 20.8931 12.2468 20.5887C11.4082 20.0561 10.7983 19.7517 10.7983 19.7517Z" fill="#0F1A2B"/>
<path d="M7.28589 19.5992C7.28589 19.5992 9.72543 19.9797 11.0977 20.5885C11.7838 20.8929 12.6224 21.6538 13.461 22.1865C14.2233 22.7192 14.9094 23.1757 14.9094 23.1757C14.9094 23.1757 11.86 23.8606 10.2591 22.7953C8.42943 21.6538 7.28589 19.5992 7.28589 19.5992Z" fill="#0F1A2B"/>
<path d="M11.5577 23.9369C11.5577 23.9369 12.3963 24.013 13.3874 23.9369C14.4547 23.8608 15.2933 23.5564 16.3606 23.8608C17.5803 24.1652 20.6297 25.4588 20.6297 25.4588C20.6297 25.4588 18.4189 26.3719 16.818 26.2197C15.1408 26.1437 11.5577 23.9369 11.5577 23.9369Z" fill="#0F1A2B"/>
<path d="M17.1984 26.9045C17.1984 26.9045 19.9428 28.1982 21.4675 27.9699C22.9922 27.7416 25.4318 26.6763 25.4318 26.6763C25.4318 26.6763 23.7546 25.9914 22.1537 25.9914C21.3151 25.9914 20.0953 26.3719 19.1042 26.6002C18.037 26.8284 17.1984 26.9045 17.1984 26.9045Z" fill="#0F1A2B"/>
<path d="M33.132 28.1977C33.5132 28.1216 33.8944 28.0455 34.3518 27.9694C34.3518 27.9694 35.4953 28.8064 36.7913 28.8064C39.0784 28.8064 41.5179 28.426 41.5179 28.426C41.5179 28.426 40.6031 28.0455 39.612 27.7411C38.6972 27.4368 38.0873 27.0563 36.5626 27.0563C35.0379 27.0563 33.5132 27.4368 32.141 27.8933C30.6925 27.3607 29.1678 27.0563 27.7193 27.0563C26.1946 27.0563 25.5847 27.4368 24.6699 27.7411C23.6789 28.1216 22.764 28.426 22.764 28.426C22.764 28.426 25.2036 28.8064 27.4906 28.8064C28.8629 28.8064 29.9302 27.9694 29.9302 27.9694C30.3876 28.0455 30.7687 28.1216 31.1499 28.1977C29.549 28.8826 28.1005 29.6436 26.957 30.4045C26.3471 30.785 25.8897 30.785 25.8897 30.785L26.5758 31.7742C26.5758 31.7742 28.5579 29.6436 32.141 28.5021C35.724 29.6436 37.7062 31.7742 37.7062 31.7742L38.3923 30.785C38.3923 30.785 37.9349 30.785 37.325 30.4045C36.1814 29.7196 34.733 28.8826 33.132 28.1977Z" fill="#0F1A2B"/>
<path d="M5.53483 18.0773H0.579541L0.198364 16.5554H0.2746C0.503305 17.0119 0.960717 17.1642 1.72307 17.1642H4.46754C4.77248 17.1642 4.92495 17.088 4.92495 16.7076V15.7183C4.92495 15.4139 4.84872 15.2618 4.46754 15.2618H1.72307C0.732011 15.2618 0.198364 14.8052 0.198364 13.7399V12.1418C0.198364 11.0765 0.732011 10.6199 1.72307 10.6199H6.67836L7.05954 12.1418H6.90707C6.67836 11.6853 6.22095 11.5331 5.4586 11.5331H2.71413C2.40919 11.5331 2.25672 11.6092 2.25672 11.9897V12.7506C2.25672 13.055 2.33295 13.2072 2.71413 13.2072H5.53483C6.52589 13.2072 7.05954 13.6637 7.05954 14.7291V16.6314C7.05954 17.5446 6.52589 18.0773 5.53483 18.0773Z" fill="#0F1A2B"/>
<path d="M12.6249 18.0775L12.5486 17.4688C12.3962 17.9254 12.2437 18.0015 11.9388 18.0015H9.42299C8.50816 18.0015 8.05075 17.5449 8.05075 16.5556V13.6641C8.05075 12.827 7.82203 12.7509 7.51709 12.5987V12.5226H10.1091V16.784C10.1091 17.0884 10.1853 17.1644 10.4903 17.1644H12.2437C12.5486 17.1644 12.6249 17.0884 12.6249 16.784V13.6641C12.6249 12.827 12.3962 12.7509 12.0912 12.5987V12.5226H14.6832V16.86C14.6832 17.6971 14.9119 17.7732 15.2169 17.9254V18.0015H12.6249V18.0775Z" fill="#0F1A2B"/>
<path d="M20.0976 18.0773V18.0013C20.4025 17.849 20.6312 17.7729 20.6312 16.9359V13.816C20.6312 13.5116 20.555 13.4355 20.25 13.4355H18.4966C18.1917 13.4355 18.1154 13.5116 18.1154 13.816V16.9359C18.1154 17.7729 18.3441 17.849 18.6491 18.0013V18.0773H15.5234V18.0013C15.8284 17.849 16.0571 17.7729 16.0571 16.9359V13.7399C16.0571 12.9028 15.8284 12.8267 15.5234 12.6746V12.5984H17.963L18.0392 13.1311C18.1917 12.6746 18.3441 12.5984 18.6491 12.5984H21.1648C22.0797 12.5984 22.5371 13.0551 22.5371 14.0442V16.9359C22.5371 17.7729 22.7658 17.849 23.0707 18.0013V18.0773H20.0976Z" fill="#0F1A2B"/>
<path d="M28.5575 18.0772H24.0596L23.7546 16.7836H23.8309C23.9833 17.0879 24.3645 17.2401 24.8982 17.2401H27.5664C27.8713 17.2401 28.0238 17.0879 28.0238 16.8597V16.5553C28.0238 16.3269 27.8713 16.1748 27.5664 16.1748H24.9744C24.1358 16.1748 23.7546 15.7182 23.7546 14.6529V13.968C23.7546 12.9788 24.1358 12.4461 24.9744 12.4461H29.701L30.0059 13.7397H29.9297C29.7772 13.4354 29.396 13.2831 28.8624 13.2831H26.1179C25.8892 13.2831 25.7368 13.3592 25.7368 13.5875V13.8159C25.7368 14.0441 25.8892 14.1202 26.1179 14.1202H28.6337C29.5485 14.1202 30.0059 14.5007 30.0059 15.3378V16.6313C30.0059 17.6206 29.5485 18.0772 28.5575 18.0772Z" fill="#0F1A2B"/>
<path d="M37.1727 18.0774H32.2174C31.3026 18.0774 30.8452 17.6208 30.8452 16.6316V14.1204C30.8452 13.1312 31.3026 12.6746 32.2174 12.6746H36.0292C36.944 12.6746 37.4014 13.1312 37.4014 14.1204V15.8706H32.8273V16.8598C32.8273 17.1642 32.9036 17.2403 33.2085 17.2403H36.2579C36.7916 17.2403 37.1727 17.0881 37.3252 16.7837H37.4014L37.1727 18.0774ZM35.4193 13.816C35.4193 13.5116 35.3431 13.4355 35.0382 13.4355H33.2085C32.9036 13.4355 32.8273 13.5116 32.8273 13.816V14.9574H35.3431V13.816H35.4193Z" fill="#0F1A2B"/>
<path d="M44.6447 18.0774H39.6894C38.7745 18.0774 38.3171 17.6208 38.3171 16.6316V14.1204C38.3171 13.1312 38.7745 12.6746 39.6894 12.6746H43.5011C44.416 12.6746 44.8734 13.1312 44.8734 14.1204V15.8706H40.2993V16.8598C40.2993 17.1642 40.3755 17.2403 40.6804 17.2403H43.7298C44.2635 17.2403 44.6447 17.0881 44.7971 16.7837H44.8734L44.6447 18.0774ZM42.8913 13.816C42.8913 13.5116 42.815 13.4355 42.5101 13.4355H40.6804C40.3755 13.4355 40.2993 13.5116 40.2993 13.816V14.9574H42.8913V13.816Z" fill="#0F1A2B"/>
<path d="M52.8019 18.0772H50.2099L48.6852 15.1855L47.8466 15.7943V16.8596C47.8466 17.6967 48.0753 17.7728 48.3803 17.9249V18.0011H45.2546V17.9249C45.5596 17.7728 45.7883 17.6967 45.7883 16.8596V11.6852C45.7883 10.8481 45.5596 10.772 45.2546 10.6198V10.5438H47.8466V14.729L50.2099 12.9027C50.1337 12.7505 49.9812 12.6744 49.8288 12.6744V12.5983H52.4208V12.6744C52.1158 12.8266 51.9633 12.8266 51.3535 13.2071L50.1337 14.0441L51.8871 17.2401C52.1921 17.7728 52.3445 17.7728 52.7257 17.9249L52.8019 18.0772Z" fill="#0F1A2B"/>
<path d="M59.2059 18.0774H54.3268C53.412 18.0774 52.9546 17.6208 52.9546 16.6316V14.1204C52.9546 13.1312 53.412 12.6746 54.3268 12.6746H58.1386C59.0534 12.6746 59.5108 13.1312 59.5108 14.1204V15.8706H54.9367V16.8598C54.9367 17.1642 55.0129 17.2403 55.3179 17.2403H58.3673C58.9009 17.2403 59.2821 17.0881 59.4346 16.7837H59.5108L59.2059 18.0774ZM57.4525 13.816C57.4525 13.5116 57.3762 13.4355 57.0713 13.4355H55.2416C54.9367 13.4355 54.8605 13.5116 54.8605 13.816V14.9574H57.3762V13.816H57.4525Z" fill="#0F1A2B"/>
<path d="M64.9236 14.1204C64.7711 13.816 64.39 13.6639 63.8563 13.6639H62.8653C62.6366 13.6639 62.4841 13.7399 62.4841 13.9683V16.936C62.4841 17.4686 62.7128 17.8491 63.0177 18.0012V18.0774H59.8921V18.0012C60.197 17.8491 60.4257 17.773 60.4257 16.936V13.816C60.4257 13.2834 60.197 12.9029 59.8921 12.7507V12.6746H62.2554L62.3316 13.2834C62.4079 12.8268 62.6366 12.6746 63.2464 12.6746H64.5424L64.9236 14.1965V14.1204Z" fill="#0F1A2B"/>
</g>
<defs>
<clipPath id="clip0_150_5716">
<rect width="64.8" height="32" fill="white" transform="translate(0.199951)"/>
</clipPath>
</defs>
</svg>
