<svg width="206" height="55" viewBox="0 0 206 55" fill="none" xmlns="http://www.w3.org/2000/svg">
<path d="M108.833 1.41716C105.09 3.51943 106.046 9.91382 110.108 9.91382C114.647 9.91382 117.116 2.81867 113.134 1.15438C110.745 0.103248 111.223 0.103248 108.833 1.41716Z" fill="white"/>
<path d="M5.29783 5.97249C5.29783 6.58566 0.598836 36.105 0.120972 38.5576C-0.277247 40.5723 -0.197604 40.5723 8.64288 40.5723C15.7312 40.5723 18.3594 40.2219 20.9877 38.908C26.6424 36.0174 28.6335 28.6594 24.8902 24.7177L22.9788 22.703L25.6867 19.9C27.8371 17.7101 28.3946 16.4838 28.3946 13.9436C28.3946 9.56386 27.3592 7.63679 24.3327 6.49806C21.8638 5.53452 5.29783 5.09655 5.29783 5.97249ZM20.2709 14.9947C20.6691 18.2357 19.0762 19.5496 14.6958 19.5496C10.9526 19.5496 10.7136 19.462 11.1915 17.5349C11.4304 16.4838 11.6693 14.9071 11.6693 14.0312C11.6693 12.7173 12.3065 12.4545 15.8905 12.7173C19.5541 12.98 20.032 13.2428 20.2709 14.9947ZM17.8816 26.7324C18.4391 27.3455 18.8373 28.5718 18.8373 29.623C18.8373 32.5136 17.2444 33.5647 12.7047 33.5647H8.56323L8.96145 30.6741C9.20038 29.185 9.51896 27.3455 9.75789 26.7324C10.0765 25.3308 16.6073 25.3308 17.8816 26.7324Z" fill="white"/>
<path d="M177.327 5.8849C177.327 6.06009 178.999 10.0018 180.99 14.6443L184.654 23.141L179.955 29.2726C177.406 32.6888 174.539 36.6305 173.504 38.032L171.672 40.5723H175.973H180.273L193.096 23.579C200.184 14.2064 205.998 6.32287 205.998 6.06009C205.998 5.7973 204.246 5.53452 202.096 5.53452C198.353 5.53452 198.034 5.70971 194.211 10.4398L190.309 15.4327L187.999 10.4398L185.769 5.53452H181.548C179.238 5.53452 177.327 5.70971 177.327 5.8849Z" fill="white"/>
<path d="M90.1979 7.8994C89.959 8.77534 89.0829 14.1186 88.2068 19.7246C86.4547 30.4112 86.1361 35.9296 87.1715 37.5939C89.0033 40.5721 97.0473 41.7984 98.003 39.1706C99.0384 36.1048 98.4809 33.6521 96.7287 33.3894C95.0562 33.1266 94.8969 32.6886 94.9766 28.5717C95.2155 21.1262 95.773 19.5495 98.4013 19.5495C100.791 19.5495 101.667 18.3231 101.667 14.6442C101.667 12.9799 101.268 12.5419 99.6756 12.5419C97.9234 12.5419 97.6845 12.1915 97.6845 9.4761C97.6845 6.4103 97.6845 6.4103 94.1801 6.4103C91.4722 6.4103 90.5165 6.76067 90.1979 7.8994Z" fill="white"/>
<path d="M37.3123 14.3815C28.3922 19.2868 26.4011 34.1779 33.8876 39.0831C36.6751 40.9226 43.3652 41.0102 46.9492 39.3459C54.6747 35.8422 58.3383 24.2797 54.0375 17.0094C51.25 12.4545 43.2059 11.1405 37.3123 14.3815ZM45.9935 20.4255C47.1085 21.1263 47.5067 22.265 47.5067 25.1556C47.5067 31.7252 41.852 36.0173 38.3477 32.0756C36.3566 29.8857 37.2326 24.1045 39.9405 21.5643C42.2502 19.3744 43.6838 19.1116 45.9935 20.4255Z" fill="white"/>
<path d="M65.1896 14.0312C57.3845 18.2358 54.4377 32.426 60.1721 38.1197C63.0392 40.9227 67.8975 41.4483 71.7204 39.2584C74.4283 37.6817 74.6673 37.6817 74.3487 38.9956C74.269 39.784 75.4637 40.2219 77.9327 40.3971L81.5963 40.6599L82.4724 36.0174C83.8263 28.3091 85.7378 15.6955 85.7378 14.0312C85.7378 12.8049 85.021 12.5421 82.2334 12.5421C79.8441 12.5421 78.5698 12.9801 78.2512 13.856C77.853 15.0824 77.5344 15.0824 75.4637 13.856C72.3576 12.1917 68.5347 12.1917 65.1896 14.0312ZM74.4283 20.9512C77.0566 22.9659 76.8176 27.7835 73.8708 31.0245C71.1629 34.0027 68.8532 34.2655 66.6232 31.8129C63.8357 28.7471 65.11 22.7907 69.0125 20.6884C71.5611 19.2869 72.2779 19.2869 74.4283 20.9512Z" fill="white"/>
<path d="M104.932 17.097C104.454 19.6372 103.419 25.944 102.543 31.1121L101.109 40.5723H104.932H108.755L109.552 35.9298C111.543 24.8053 112.817 16.5714 112.817 14.6443C112.817 12.7173 112.498 12.5421 109.313 12.5421H105.729L104.932 17.097Z" fill="white"/>
<path d="M117.994 13.5932C117.675 14.7319 113.613 39.0832 113.613 40.0467C113.613 40.3095 115.365 40.5723 117.436 40.5723H121.339L122.693 31.8128C123.887 24.4549 124.445 22.7906 126.117 21.3015C128.507 19.2868 130.259 19.1116 132.33 20.7759C133.763 21.9147 133.763 22.4402 132.807 28.8346C132.33 32.6888 131.613 36.8057 131.374 38.1196C130.976 40.5723 130.976 40.5723 134.878 40.5723H138.781L140.135 31.55C141.967 19.462 141.887 18.1481 139.179 15.0823C136.471 12.1917 132.25 11.6661 128.427 13.856C125.64 15.4327 125.56 15.4327 125.56 13.856C125.56 12.1917 118.551 11.9289 117.994 13.5932Z" fill="white"/>
<path d="M153.322 13.2144C148.225 15.4918 144.562 22.0614 144.562 28.8938C144.562 33.8867 145.517 36.4269 148.066 38.7043C150.137 40.6314 155.791 40.719 158.898 38.9671C161.207 37.6532 161.287 37.6532 161.287 39.8431C161.287 45.1863 154.119 48.5149 151.172 44.6608C150.216 43.4344 148.783 42.9089 146.393 42.9089C143.128 42.9089 142.969 43.0841 142.969 45.4491C142.969 49.8288 148.623 54.2961 154.119 54.2961C158.977 54.2961 165.11 50.1792 167.419 45.2739C168.455 43.0841 173.154 17.0685 173.233 13.302C173.233 12.6012 171.959 12.2508 169.57 12.2508C166.623 12.2508 165.827 12.6012 165.508 14.0027C165.11 15.7546 165.11 15.7546 163.119 14.0027C160.889 12.0757 156.668 11.8129 153.322 13.2144ZM162.72 21.7986C165.269 25.2148 161.367 33.2735 157.145 33.2735C154.597 33.2735 152.526 30.7333 152.526 27.6675C152.526 21.0103 159.296 17.0685 162.72 21.7986Z" fill="white"/>
<path d="M192.542 31.8128C190.073 35.1414 190.073 35.4042 191.267 37.9444C192.382 40.3971 192.781 40.5723 196.842 40.5723C199.232 40.5723 201.223 40.3971 201.223 40.1343C201.223 39.1708 196.046 28.3091 195.648 28.3091C195.329 28.3091 193.975 29.8858 192.542 31.8128Z" fill="white"/>
</svg>
